<?xml version="1.0" encoding="UTF-8" standalone="no"?>
<svg
   xmlns:dc="http://purl.org/dc/elements/1.1/"
   xmlns:cc="http://creativecommons.org/ns#"
   xmlns:rdf="http://www.w3.org/1999/02/22-rdf-syntax-ns#"
   xmlns:svg="http://www.w3.org/2000/svg"
   xmlns="http://www.w3.org/2000/svg"
   viewBox="0 0 672 192"
   height="192"
   width="672"
   xml:space="preserve"
   id="svg2"
   version="1.1"><metadata
     id="metadata8"><rdf:RDF><cc:Work
         rdf:about=""><dc:format>image/svg+xml</dc:format><dc:type
           rdf:resource="http://purl.org/dc/dcmitype/StillImage" /></cc:Work></rdf:RDF></metadata><defs
     id="defs6"><clipPath
       id="clipPath18"
       clipPathUnits="userSpaceOnUse"><path
         id="path16"
         d="M 0,144 H 504 V 0 H 0 Z" /></clipPath></defs><g
     transform="matrix(1.3333333,0,0,-1.3333333,0,192)"
     id="g10"><g
       id="g12"><g
         clip-path="url(#clipPath18)"
         id="g14"><g
           transform="translate(484.1515,108.5772)"
           id="g20"><path
             id="path22"
             style="fill:#373535;fill-opacity:1;fill-rule:nonzero;stroke:none"
             d="m 0,0 c -2.102,0 -3.812,1.71 -3.812,3.812 0,2.101 1.71,3.811 3.812,3.811 2.102,0 3.812,-1.71 3.812,-3.811 C 3.812,1.71 2.102,0 0,0 m 0,8.557 c -2.617,0 -4.746,-2.129 -4.746,-4.745 0,-2.617 2.129,-4.746 4.746,-4.746 2.617,0 4.746,2.129 4.746,4.746 0,2.616 -2.129,4.745 -4.746,4.745" /></g><g
           transform="translate(484.4675,112.5806)"
           id="g24"><path
             id="path26"
             style="fill:#373535;fill-opacity:1;fill-rule:nonzero;stroke:none"
             d="M 0,0 H -1.002 V 1.211 H 0 C 0.384,1.211 0.673,0.982 0.673,0.606 0.673,0.229 0.384,0 0,0 m 1.648,0.606 c 0,0.834 -0.572,1.446 -1.507,1.446 h -2.099 v -4.488 h 0.956 v 1.595 h 0.699 l 0.882,-1.595 h 1.096 l -1.009,1.709 c 0.484,0.115 0.982,0.539 0.982,1.333" /></g><g
           transform="translate(399.5065,80.379)"
           id="g28"><path
             id="path30"
             style="fill:#373535;fill-opacity:1;fill-rule:nonzero;stroke:none"
             d="m 0,0 c -7.659,0 -13.868,6.209 -13.868,13.868 0,7.659 6.209,13.868 13.868,13.868 7.659,0 13.868,-6.209 13.868,-13.868 C 13.868,6.209 7.659,0 0,0 M 0,36.68 C -12.598,36.68 -22.811,26.466 -22.811,13.868 -22.811,1.27 -12.598,-8.943 0,-8.943 12.598,-8.943 22.811,1.27 22.811,13.868 22.811,26.466 12.598,36.68 0,36.68" /></g><g
           transform="translate(117.1109,80.7026)"
           id="g32"><path
             id="path34"
             style="fill:#373535;fill-opacity:1;fill-rule:nonzero;stroke:none"
             d="M 0,0 H -11.871 V 10.055 H 0 C 3.632,10.055 5.578,7.72 5.578,4.996 5.578,1.882 3.503,0 0,0 m -11.871,27.375 h 11.546 c 3.114,0 5.06,-2.011 5.06,-4.735 0,-2.725 -1.946,-4.671 -5.06,-4.671 H -11.871 Z M 6.681,14.337 c 4.087,0.843 7.46,4.475 7.46,9.924 0,5.773 -4.217,11.028 -12.455,11.028 H -21.083 V -7.978 H 2.4 c 8.238,0 12.584,5.189 12.584,11.676 0,5.449 -3.697,9.925 -8.303,10.639" /></g><g
           transform="translate(159.0582,96.2071)"
           id="g36"><path
             id="path38"
             style="fill:#373535;fill-opacity:1;fill-rule:nonzero;stroke:none"
             d="M 0,0 H -9.666 V 11.676 H 0 C 3.697,11.676 6.487,9.47 6.487,5.838 6.487,2.205 3.697,0 0,0 m 15.893,5.838 c 0,8.043 -5.514,13.946 -14.531,13.946 h -20.239 v -43.267 h 9.211 v 15.374 h 6.747 l 8.497,-15.374 h 10.574 l -9.73,16.477 c 4.67,1.103 9.471,5.19 9.471,12.844" /></g><g
           transform="translate(244.9795,88.1627)"
           id="g40"><path
             id="path42"
             style="fill:#373535;fill-opacity:1;fill-rule:nonzero;stroke:none"
             d="M 0,0 6.746,18.617 13.493,0 Z m 0.973,27.829 -16.736,-43.267 h 10.509 l 2.725,7.329 h 18.552 l 2.66,-7.329 H 29.191 L 12.52,27.829 Z" /></g><g
           transform="translate(299.1911,80.8329)"
           id="g44"><path
             id="path46"
             style="fill:#373535;fill-opacity:1;fill-rule:nonzero;stroke:none"
             d="M 0,0 H -7.849 V 27.05 H 0 c 8.888,0 13.558,-5.903 13.558,-13.558 C 13.558,6.163 8.563,0 0,0 M 0,35.159 H -17.06 V -8.109 H 0 c 13.558,0 22.964,8.563 22.964,21.601 0,13.039 -9.406,21.667 -22.964,21.667" /></g><g
           transform="translate(461.7056,115.9996)"
           id="g48"><path
             id="path50"
             style="fill:#373535;fill-opacity:1;fill-rule:nonzero;stroke:none"
             d="M 0,0 -11.347,-18.345 -22.693,0 h -10.184 v -43.275 h 9.213 v 28.283 l 9.92,-15.081 c 1.134,-1.724 3.661,-1.724 4.795,0 l 9.92,15.081 v -28.283 h 9.213 l 0,43.275 z" /></g><g
           transform="translate(204.1608,80.379)"
           id="g52"><path
             id="path54"
             style="fill:#373535;fill-opacity:1;fill-rule:nonzero;stroke:none"
             d="m 0,0 c -7.659,0 -13.868,6.209 -13.868,13.868 0,7.659 6.209,13.868 13.868,13.868 7.659,0 13.868,-6.209 13.868,-13.868 C 13.868,6.209 7.659,0 0,0 M 0,36.68 C -12.598,36.68 -22.811,26.466 -22.811,13.868 -22.811,1.27 -12.598,-8.943 0,-8.943 12.598,-8.943 22.811,1.27 22.811,13.868 22.811,26.466 12.598,36.68 0,36.68" /></g><g
           transform="translate(363.6103,87.5366)"
           id="g56"><path
             id="path58"
             style="fill:#373535;fill-opacity:1;fill-rule:nonzero;stroke:none"
             d="m 0,0 c -2.365,-4.267 -6.91,-7.158 -12.133,-7.158 -7.66,0 -13.869,6.209 -13.869,13.868 0,7.659 6.209,13.868 13.869,13.868 5.18,0 9.69,-2.846 12.071,-7.055 l 6.469,6.469 c -4.14,5.768 -10.899,9.53 -18.54,9.53 -12.599,0 -22.812,-10.213 -22.812,-22.812 0,-12.598 10.213,-22.811 22.812,-22.811 7.684,0 14.475,3.803 18.608,9.626 z" /></g><g
           transform="translate(47.2298,126.3741)"
           id="g60"><path
             id="path62"
             style="fill:#ce3540;fill-opacity:1;fill-rule:nonzero;stroke:none"
             d="m 0,0 c -17.743,0 -32.127,-14.384 -32.127,-32.127 0,-3.387 0.527,-6.649 1.499,-9.715 0.752,0.364 1.517,0.715 2.321,1.035 3.674,1.464 7.038,0.974 10.409,-1.07 0,0 1.229,-0.749 1.598,-0.981 1.57,-0.987 3.054,-1.919 4.477,-1.919 1.361,0 2.697,0.362 3.263,2.992 0.883,4.102 3.037,14.182 3.976,19.174 0.553,2.935 0.855,4.517 1.17,5.59 0.551,1.879 1.556,2.905 2.983,3.077 0,0 0.247,0.035 0.431,0.035 0.183,0 0.408,-0.033 0.408,-0.033 1.439,-0.163 2.453,-1.19 3.006,-3.079 0.315,-1.073 0.618,-2.655 1.17,-5.59 0.939,-4.992 3.093,-15.072 3.976,-19.174 0.566,-2.63 1.902,-2.992 3.263,-2.992 1.423,0 2.907,0.932 4.477,1.919 0.369,0.232 1.598,0.981 1.598,0.981 3.37,2.044 6.735,2.534 10.409,1.07 0.804,-0.32 1.568,-0.671 2.321,-1.034 0.972,3.065 1.499,6.327 1.499,9.714 C 32.127,-14.384 17.743,0 0,0" /></g><g
           transform="translate(69.6523,80.9251)"
           id="g64"><path
             id="path66"
             style="fill:#ce3540;fill-opacity:1;fill-rule:nonzero;stroke:none"
             d="m 0,0 c -1.212,-0.406 -2.289,-1.124 -3.363,-1.799 -2.025,-1.272 -4.319,-2.714 -7.237,-2.714 -4.326,0 -7.362,2.583 -8.332,7.087 -0.75,3.488 -3.494,16.657 -3.494,16.657 -1.07,-5.375 -2.737,-13.169 -3.487,-16.657 -0.97,-4.504 -4.006,-7.087 -8.332,-7.087 -2.918,0 -5.212,1.442 -7.236,2.714 -1.075,0.675 -2.152,1.393 -3.364,1.799 -1.245,0.418 -2.532,0.399 -3.786,0.028 -0.883,-0.26 -1.723,-0.627 -2.546,-1.033 5.267,-10.55 15.92,-17.8 28.514,-17.8 12.593,0 23.728,7.25 28.995,17.8 C 5.509,-0.599 4.669,-0.232 3.786,0.028 2.532,0.399 1.245,0.418 0,0" /></g><g
           transform="translate(75.537,85.5675)"
           id="g68"><path
             id="path70"
             style="fill:#ffffff;fill-opacity:1;fill-rule:nonzero;stroke:none"
             d="m 0,0 c -3.674,1.463 -7.039,0.974 -10.409,-1.07 0,0 -1.229,-0.75 -1.598,-0.981 -1.571,-0.987 -3.054,-1.92 -4.477,-1.92 -1.361,0 -2.697,0.363 -3.264,2.993 -0.882,4.102 -3.036,14.182 -3.975,19.174 -0.553,2.935 -0.855,4.516 -1.17,5.59 -0.554,1.889 -1.568,2.915 -3.006,3.078 0,0 -0.225,0.034 -0.408,0.034 -0.184,0 -0.432,-0.036 -0.432,-0.036 -1.426,-0.171 -2.432,-1.197 -2.982,-3.076 -0.315,-1.074 -0.618,-2.655 -1.17,-5.59 -0.939,-4.992 -3.094,-15.072 -3.976,-19.174 -0.566,-2.63 -1.903,-2.993 -3.263,-2.993 -1.423,0 -2.907,0.933 -4.478,1.92 -0.368,0.231 -1.597,0.981 -1.597,0.981 -3.371,2.044 -6.736,2.533 -10.409,1.07 -0.795,-0.316 -1.55,-0.663 -2.293,-1.022 0.508,-1.594 1.137,-3.134 1.876,-4.61 0.813,0.4 1.643,0.76 2.515,1.018 1.254,0.37 2.541,0.389 3.786,-0.028 1.212,-0.407 2.289,-1.125 3.364,-1.799 2.024,-1.272 4.318,-2.714 7.236,-2.714 4.326,0 7.363,2.582 8.332,7.086 0.751,3.489 2.417,11.282 3.487,16.657 0,0 2.744,-13.168 3.494,-16.657 0.97,-4.504 4.007,-7.086 8.333,-7.086 2.917,0 5.212,1.442 7.236,2.714 1.074,0.674 2.151,1.392 3.363,1.799 1.246,0.417 2.532,0.398 3.787,0.028 0.871,-0.258 1.701,-0.618 2.514,-1.018 0.74,1.476 1.369,3.016 1.877,4.611 C 1.549,-0.663 0.794,-0.316 0,0" /></g><g
           transform="translate(101.0627,29.9326)"
           id="g72"><path
             id="path74"
             style="fill:#858789;fill-opacity:1;fill-rule:nonzero;stroke:none"
             d="m 0,0 v -7.279 c -0.038,-2.552 0.225,-3.039 1.539,-3.039 H 2.326 L 2.214,-11.819 H -5.14 l 0.112,1.501 h 0.3 c 1.276,0 1.576,0.487 1.576,3.002 V 8.667 c 0,2.477 -0.3,3.002 -1.576,3.002 H -5.14 l 0.112,1.501 h 15.722 c 0.037,-0.563 0.075,-0.788 0.112,-1.201 l 0.15,-0.976 c 0.15,-1.05 0.226,-1.575 0.263,-2.326 H 9.23 c -0.112,1.839 -0.6,2.252 -2.551,2.252 h -4.09 c -2.214,0 -2.627,-0.413 -2.627,-2.477 V 2.289 H 9.418 L 9.305,0 Z" /></g><g
           transform="translate(130.5193,41.1142)"
           id="g76"><path
             id="path78"
             style="fill:#858789;fill-opacity:1;fill-rule:nonzero;stroke:none"
             d="m 0,0 c -5.14,0 -7.392,-3.228 -7.392,-10.507 0,-7.166 2.289,-10.506 7.205,-10.506 5.14,0 7.429,3.19 7.429,10.506 C 7.242,-3.34 4.953,0 0,0 m -0.075,-23.488 c -6.866,0 -10.581,4.54 -10.581,12.981 0,8.443 3.715,13.021 10.581,13.021 6.867,0 10.544,-4.578 10.544,-13.021 0,-8.479 -3.677,-12.981 -10.544,-12.981" /></g><g
           transform="translate(163.7297,43.1025)"
           id="g80"><path
             id="path82"
             style="fill:#858789;fill-opacity:1;fill-rule:nonzero;stroke:none"
             d="M 0,0 H 6.904 L 6.754,-1.501 H 6.491 c -1.313,0 -1.613,-0.525 -1.613,-3.002 V -17.41 c 0,-2.889 -0.826,-5.141 -2.364,-6.304 -1.426,-1.125 -4.015,-1.763 -6.754,-1.763 -2.739,0 -5.29,0.638 -6.754,1.763 -1.688,1.277 -2.514,3.34 -2.514,6.267 v 12.944 c 0,2.477 -0.263,3.002 -1.575,3.002 h -0.413 L -15.384,0 h 7.017 L -8.48,-1.501 h -0.262 c -1.351,0 -1.614,-0.525 -1.614,-3.002 v -12.231 c 0,-2.627 0.338,-3.94 1.201,-4.803 0.938,-0.939 2.777,-1.464 4.915,-1.464 2.177,0 4.053,0.564 4.915,1.464 0.901,0.937 1.201,2.176 1.201,4.765 v 12.269 c 0,2.477 -0.263,3.002 -1.576,3.002 h -0.412 z" /></g><g
           transform="translate(196.677,18.1132)"
           id="g84"><path
             id="path86"
             style="fill:#858789;fill-opacity:1;fill-rule:nonzero;stroke:none"
             d="m 0,0 -11.444,16.997 c -1.501,2.251 -2.026,3.227 -2.777,5.291 h -0.112 l 0.15,-1.014 c 0.225,-1.688 0.375,-3.414 0.375,-4.952 V 4.503 c 0,-2.477 0.263,-3.002 1.576,-3.002 h 0.638 L -11.707,0 h -6.753 l 0.149,1.501 h 0.301 c 1.276,0 1.575,0.487 1.575,3.002 v 15.983 c 0,2.477 -0.299,3.002 -1.575,3.002 h -0.413 l 0.112,1.501 h 5.216 c 0.375,-0.975 0.488,-1.163 1.238,-2.289 0.188,-0.224 0.376,-0.525 0.638,-0.9 L -2.364,8.63 c 1.013,-1.501 1.689,-2.815 2.289,-4.315 h 0.113 c -0.338,1.5 -0.526,3.039 -0.526,4.653 v 11.518 c 0,2.477 -0.262,3.002 -1.576,3.002 h -0.675 l 0.113,1.501 H 4.127 L 4.015,23.488 H 3.752 c -1.351,0 -1.613,-0.525 -1.613,-3.002 V 3.414 c 0,-1.801 0,-2.063 0.225,-2.964 L 2.477,0 Z" /></g><g
           transform="translate(213.5652,24.1914)"
           id="g88"><path
             id="path90"
             style="fill:#858789;fill-opacity:1;fill-rule:nonzero;stroke:none"
             d="m 0,0 c 0,-3.677 0.188,-3.864 4.203,-3.864 3.489,0 5.665,0.9 6.979,2.851 1.275,1.801 1.913,4.39 1.913,7.542 0,3.789 -1.088,7.091 -2.814,8.592 C 9.118,16.135 7.242,16.66 4.728,16.66 0.601,16.66 0,16.172 0,12.72 Z M -4.99,18.911 H 5.516 c 3.227,0 4.953,-0.413 6.566,-1.651 1.013,-0.75 1.838,-1.689 2.401,-2.739 1.201,-2.176 1.839,-4.916 1.839,-8.067 0,-5.291 -1.726,-9.155 -4.915,-11.106 -1.764,-1.051 -3.64,-1.426 -6.904,-1.426 h -9.606 l 0.113,1.501 h 0.3 c 1.275,0 1.576,0.487 1.576,3.002 v 15.983 c 0,2.477 -0.301,3.002 -1.576,3.002 h -0.45 z" /></g><g
           transform="translate(248.4636,36.7236)"
           id="g92"><path
             id="path94"
             style="fill:#858789;fill-opacity:1;fill-rule:nonzero;stroke:none"
             d="M 0,0 C -0.45,1.163 -0.676,2.477 -0.676,3.715 V 3.79 H -0.825 C -0.9,2.439 -1.126,1.501 -1.764,0 l -3.189,-7.654 h 7.88 z m -5.891,-9.905 -2.138,-5.404 c -0.151,-0.375 -0.263,-0.9 -0.263,-1.126 0,-0.45 0.225,-0.637 1.013,-0.674 L -7.43,-18.61 h -5.403 l 0.15,1.501 c 0.563,0.075 0.751,0.187 0.976,0.562 0.15,0.263 0.225,0.375 0.6,1.238 l 7.993,18.537 c 0.6,1.387 0.825,2.212 0.863,3.151 H 1.051 C 1.088,5.516 1.163,5.178 1.913,3.228 l 7.205,-18.761 0.225,-0.601 c 0.262,-0.751 0.6,-0.975 1.388,-0.975 l -0.15,-1.501 H 4.915 l 0.113,1.501 c 0.75,0.037 1.013,0.187 1.013,0.674 0,0.226 -0.112,0.676 -0.3,1.126 l -1.989,5.404 z" /></g><g
           transform="translate(279.654,38.4501)"
           id="g96"><path
             id="path98"
             style="fill:#858789;fill-opacity:1;fill-rule:nonzero;stroke:none"
             d="m 0,0 c 0,0.263 0,0.45 0.037,0.562 v 0.3 c 0,1.389 -0.413,1.539 -3.715,1.539 h -1.801 v -18.235 c -0.038,-2.515 0.225,-3.002 1.539,-3.002 h 0.45 l -0.15,-1.501 h -6.979 l 0.112,1.501 h 0.301 c 1.313,0 1.575,0.487 1.575,3.002 V 2.401 h -2.213 c -2.889,0 -3.077,-0.113 -3.302,-1.839 L -14.221,0 h -1.989 c 0.113,0.976 0.188,2.176 0.188,3.64 0,0.299 -0.038,0.524 -0.038,1.012 H 2.176 L 2.139,4.09 C 2.101,3.714 2.101,3.189 2.063,2.438 L 2.025,0.937 C 2.025,0.825 1.988,0.487 1.988,0 Z" /></g><g
           transform="translate(296.4284,18.1132)"
           id="g100"><path
             id="path102"
             style="fill:#858789;fill-opacity:1;fill-rule:nonzero;stroke:none"
             d="m 0,0 h -6.979 l 0.113,1.501 h 0.262 c 1.313,0 1.614,0.487 1.614,3.002 v 15.983 c 0,2.477 -0.301,3.002 -1.614,3.002 h -0.413 l 0.151,1.501 h 4.99 1.988 L 0,23.488 h -0.263 c -1.35,0 -1.613,-0.525 -1.613,-3.002 V 4.503 c 0,-2.515 0.263,-3.002 1.575,-3.002 h 0.413 z" /></g><g
           transform="translate(314.8161,41.1142)"
           id="g104"><path
             id="path106"
             style="fill:#858789;fill-opacity:1;fill-rule:nonzero;stroke:none"
             d="m 0,0 c -5.141,0 -7.392,-3.228 -7.392,-10.507 0,-7.166 2.288,-10.506 7.205,-10.506 5.139,0 7.428,3.19 7.428,10.506 C 7.241,-3.34 4.952,0 0,0 m -0.075,-23.488 c -6.866,0 -10.581,4.54 -10.581,12.981 0,8.443 3.715,13.021 10.581,13.021 6.866,0 10.543,-4.578 10.543,-13.021 0,-8.479 -3.677,-12.981 -10.543,-12.981" /></g><g
           transform="translate(350.614,18.1132)"
           id="g108"><path
             id="path110"
             style="fill:#858789;fill-opacity:1;fill-rule:nonzero;stroke:none"
             d="m 0,0 -11.443,16.997 c -1.501,2.251 -2.027,3.227 -2.777,5.291 h -0.113 l 0.15,-1.014 c 0.225,-1.688 0.375,-3.414 0.375,-4.952 V 4.503 c 0,-2.477 0.263,-3.002 1.577,-3.002 h 0.637 L -11.706,0 h -6.754 l 0.15,1.501 h 0.3 c 1.276,0 1.576,0.487 1.576,3.002 v 15.983 c 0,2.477 -0.3,3.002 -1.576,3.002 h -0.413 l 0.113,1.501 h 5.215 c 0.375,-0.975 0.489,-1.163 1.239,-2.289 0.187,-0.224 0.375,-0.525 0.637,-0.9 L -2.363,8.63 c 1.012,-1.501 1.688,-2.815 2.289,-4.315 h 0.112 c -0.338,1.5 -0.525,3.039 -0.525,4.653 v 11.518 c 0,2.477 -0.263,3.002 -1.576,3.002 h -0.675 l 0.112,1.501 H 4.128 L 4.016,23.488 H 3.753 c -1.352,0 -1.614,-0.525 -1.614,-3.002 V 3.414 c 0,-1.801 0,-2.063 0.225,-2.964 L 2.477,0 Z" /></g><path
           id="path112"
           style="fill:#858789;fill-opacity:1;fill-rule:nonzero;stroke:none"
           d="M 471.889,57.239 H 96.028 v 1 h 375.861 z" /></g></g></g></svg>