<?xml version="1.0" encoding="UTF-8" standalone="no"?>
<svg
   xmlns:dc="http://purl.org/dc/elements/1.1/"
   xmlns:cc="http://creativecommons.org/ns#"
   xmlns:rdf="http://www.w3.org/1999/02/22-rdf-syntax-ns#"
   xmlns:svg="http://www.w3.org/2000/svg"
   xmlns="http://www.w3.org/2000/svg"
   viewBox="0 0 253.85333 61.986668"
   height="61.986668"
   width="253.85333"
   xml:space="preserve"
   id="svg2"
   version="1.1"><metadata
     id="metadata8"><rdf:RDF><cc:Work
         rdf:about=""><dc:format>image/svg+xml</dc:format><dc:type
           rdf:resource="http://purl.org/dc/dcmitype/StillImage" /></cc:Work></rdf:RDF></metadata><defs
     id="defs6" /><g
     transform="matrix(1.3333333,0,0,-1.3333333,0,61.986667)"
     id="g10"><g
       transform="scale(0.1)"
       id="g12"><path
         id="path14"
         style="fill:#42a6a3;fill-opacity:1;fill-rule:nonzero;stroke:none"
         d="m 232.48,428.516 c -108.085,0 -196.0152,-87.95 -196.0152,-195.996 0,-108.125 87.9302,-196.0552 196.0152,-196.0552 108.106,0 196.016,87.9302 196.016,196.0552 0,108.046 -87.91,195.996 -196.016,195.996 z M 232.48,0 C 104.297,0 0,104.277 0,232.52 c 0,128.164 104.297,232.421 232.48,232.421 128.204,0 232.5,-104.257 232.5,-232.421 C 464.98,104.277 360.684,0 232.48,0 v 0" /><path
         id="path16"
         style="fill:#42a6a3;fill-opacity:1;fill-rule:nonzero;stroke:none"
         d="m 208.555,121.348 c -2.91,-3.008 -6.153,-5.996 -14.063,-5.996 -18.125,0 -33.086,24.531 -33.086,59.824 0,14.355 2.364,24.551 9.375,34.433 4.395,6.289 9.961,8.36 15.235,8.36 8.203,0 17.871,-5.371 22.246,-13.477 2.051,-3.867 2.363,-8.984 2.363,-14.355 l 0.859,-54.453 c 0,-6.543 -0.605,-11.954 -2.929,-14.336 z m 151.113,8.554 h -3.105 c -3.047,0 -8.926,0.938 -13.79,7.832 -10.058,14.161 -34.765,55.528 -54.023,86.485 38.711,-0.039 68.613,-0.117 70.098,-0.235 0.976,4.473 7.558,37.403 8.066,38.575 0.195,0.996 0.195,1.132 -0.312,1.484 l -3.301,1.348 c -1.016,0.449 -1.504,0 -1.992,-1.036 -2.461,-6.113 -13.711,-25.917 -22.618,-26.777 -8.906,-0.82 -16.347,-0.82 -24.101,-0.82 h -9.395 c 0,0 -34.746,-0.176 -54.394,-0.274 v 0.723 1.289 0.606 c 0,3.125 0.215,42.539 0.449,73.925 38.027,-0.019 71.582,-0.078 73.438,-0.254 0.976,4.473 7.578,37.403 8.085,38.555 0.157,0.996 0.157,1.172 -0.351,1.504 l -3.281,1.328 c -0.996,0.469 -1.504,0 -1.993,-0.996 -2.46,-6.113 -13.73,-25.918 -22.636,-26.758 -8.887,-0.859 -16.328,-0.859 -24.082,-0.859 h -9.414 c 0,0 -10.371,-0.059 -19.668,-0.176 0.097,18.75 0.215,30.215 0.215,31.426 0,3.476 1.289,7.539 7.714,7.539 h 1.602 4.785 c 1.543,0 2.051,0.605 2.051,2.207 v 8.711 c 0,1.23 -0.508,1.797 -1.875,1.836 -3.906,-0.098 -12.656,-0.899 -33.125,-0.899 -0.137,0 -0.313,0 -0.43,0 -0.156,0 -0.293,0 -0.41,0 -20.508,0 -29.238,0.801 -33.145,0.899 -1.347,-0.039 -1.855,-0.606 -1.855,-1.836 v -8.711 c 0,-1.602 0.508,-2.207 2.012,-2.207 h 4.785 1.621 c 6.426,0 7.695,-0.664 7.695,-4.082 0,-1.074 0.078,-15.488 0.157,-34.844 -9.161,0.078 -19.2,0.137 -19.2,0.137 h -9.433 c -7.715,0 -15.176,0 -24.102,0.859 -8.887,0.84 -20.117,20.645 -22.617,26.758 -0.488,0.996 -0.977,1.465 -1.973,0.996 l -3.3,-1.328 c -0.508,-0.332 -0.508,-0.508 -0.332,-1.504 0.507,-1.152 7.109,-34.082 8.105,-38.555 1.836,0.176 35.137,0.235 72.91,0.254 0.176,-24.316 0.313,-56.367 0.43,-76.543 -19.746,0.098 -53.848,0.274 -53.848,0.274 h -9.394 c -7.774,0 -15.215,0 -24.121,0.82 -8.907,0.86 -20.137,20.664 -22.637,26.777 -0.508,1.036 -0.957,1.485 -1.953,1.036 l -3.3011,-1.348 c -0.5078,-0.352 -0.5078,-0.488 -0.3516,-1.484 0.5274,-1.172 7.1097,-34.102 8.1057,-38.575 1.269,0.118 24.062,0.176 55.41,0.196 -6.543,-3.145 -12.344,-7.657 -17.715,-13.692 -16.406,-18.554 -20.508,-34.082 -20.508,-58.047 0,-46.152 38.086,-56.816 53.321,-56.816 11.543,0 26.992,6.055 36.699,15.645 -0.039,-5.86 -0.098,-11.27 -0.137,-15.8794 4.824,0.1172 10.977,0.2344 18.965,0.2344 0.059,0 0.078,0 0.117,0 0.059,0 0.117,0 0.215,0 2.031,0 3.906,0 5.684,0 0.586,0 1.132,-0.0195 1.699,-0.0195 1.269,0 2.5,-0.0196 3.652,-0.0586 0.82,-0.0391 1.602,-0.0391 2.363,-0.0391 0.762,-0.0195 1.524,-0.0195 2.207,-0.039 1.133,-0.0196 2.188,-0.0586 3.165,-0.0782 0.195,-0.0195 0.429,-0.0195 0.605,-0.0195 6.055,-0.1758 9.805,-0.4297 12.227,-0.5664 0.976,-0.0586 1.738,-0.0977 2.363,-0.1172 1.269,0.0195 1.758,0.6641 1.758,2.1875 v 8.75 c 0,0.391 -0.059,0.664 -0.157,0.898 -0.273,0.645 -0.918,0.957 -1.855,0.957 h -7.695 -0.215 c -0.137,0 -0.235,0.02 -0.352,0.059 -4.199,0.195 -5.879,2.598 -6.386,5.586 -0.235,2.637 -0.723,53.086 -0.762,91.055 l 4.433,-0.489 c 2.793,0 5.371,-2.187 6.914,-4.375 4.336,-5.957 30.938,-55.332 33.243,-61.582 1.015,-2.793 0.781,-8.164 -3.594,-8.164 h -3.828 c -1.035,0 -1.524,-0.605 -1.524,-1.875 v -8.086 c 0,-1.875 0.489,-2.519 1.524,-2.519 3.574,0 13.594,0.976 34.804,0.976 25.625,0 34.063,-0.976 36.641,-0.976 1.543,0 2.031,0.644 2.031,2.207 v 8.398 c 0,1.27 -0.488,2.207 -1.777,2.207" /><path
         id="path18"
         style="fill:#42a6a3;fill-opacity:1;fill-rule:nonzero;stroke:none"
         d="m 291.973,298.535 c -1.016,0 -1.543,-0.625 -1.543,-2.168 v -7.812 c 0,-1.563 0.273,-2.188 1.289,-2.188 h 4.355 c 5.117,0 9.746,-4.668 5.117,-12.168 -1.777,-2.812 -14.296,-15.976 -26.386,-28.359 h 13.32 c 13.672,12.91 33.105,27.363 43.008,34.609 5.156,3.711 11.289,5.274 14.902,5.274 h 4.063 c 1.269,0 2.05,0.644 2.05,2.207 v 8.437 c 0,1.543 -0.527,2.168 -1.777,2.168 -3.086,0 -12.07,-0.957 -24.609,-0.957 -20.215,0 -30.703,0.957 -33.789,0.957" /><path
         id="path20"
         style="fill:#42a6a3;fill-opacity:1;fill-rule:nonzero;stroke:none"
         d="m 114.473,285.723 h 4.043 c 3.613,0 9.746,-1.563 14.882,-5.274 9.942,-7.246 29.356,-21.699 43.028,-34.609 h 13.32 c -12.07,12.383 -24.609,25.547 -26.387,28.359 -4.609,7.5 0,12.168 5.118,12.168 h 4.336 c 1.035,0 1.308,0.625 1.308,2.188 v 7.812 c 0,1.543 -0.508,2.168 -1.523,2.168 -3.106,0 -13.594,-0.957 -33.809,-0.957 -12.539,0 -21.504,0.957 -24.57,0.957 -1.328,0 -1.817,-0.625 -1.817,-2.168 v -8.437 c 0,-1.563 0.762,-2.207 2.071,-2.207" /><path
         id="path22"
         style="fill:#42a6a3;fill-opacity:1;fill-rule:nonzero;stroke:none"
         d="m 706.758,270.645 h 89.355 v 18.769 h -56.562 l 17.441,50.43 h -19.746 l -17.441,-50.43 H 693.75 v 61.895 h 94.16 v 18.769 h -94.16 v 24.102 h -19.746 v -24.102 h -91.992 v -18.769 h 91.992 v -61.895 h -24.883 l -17.461,50.43 h -19.726 l 17.441,-50.43 h -56.289 v -18.769 h 89.355 C 643.652,246.563 613.555,219.336 569.238,199.59 l 12.52,-18.067 c 34.922,17.344 71.055,48.184 92.246,78.047 v -88.164 h 19.746 v 89.356 c 28.184,-35.879 53.223,-58.067 94.629,-79.239 l 11.328,19.024 c -26.016,11.094 -61.406,30.137 -92.949,70.098" /><path
         id="path24"
         style="fill:#42a6a3;fill-opacity:1;fill-rule:nonzero;stroke:none"
         d="m 986.113,316.387 h 18.807 v -69.59 c 0,-7.695 5.04,-12.52 12.52,-12.52 h 27.93 V 193.32 h -95.604 v 123.067 h 19.511 v -14.688 c 0,-21.679 -5.566,-44.297 -18.789,-61.191 l 13.965,-13.965 c 21.66,28.418 21.66,70.098 21.66,74.414 z m 0,51.074 h 18.807 v -34.219 h -18.807 z m 35.667,-51.074 h 23.59 v -64.532 h -17.11 c -6.48,0 -6.48,2.891 -6.48,6.25 z m -99.71,51.074 h 47.207 V 333.242 H 931.191 V 175.488 h 132.739 v 157.754 h -42.15 v 34.219 h 51.05 v 17.812 H 922.07 v -17.812" /><path
         id="path26"
         style="fill:#42a6a3;fill-opacity:1;fill-rule:nonzero;stroke:none"
         d="m 900.391,329.648 h 21.679 v 18.301 h -21.679 v 46.973 h -18.789 v -46.973 h -31.329 v -18.301 h 31.094 c -2.656,-11.777 -10.859,-46.972 -35.156,-79.238 l 8.652,-25.078 c 14.453,20.977 22.149,42.891 26.739,56.875 V 170.918 h 18.789 v 118.027 c 1.914,-3.632 8.183,-17.343 16.621,-29.863 l 11.543,17.344 c -5.547,5.996 -16.621,18.066 -28.164,45.273 v 7.949" /><path
         id="path28"
         style="fill:#42a6a3;fill-opacity:1;fill-rule:nonzero;stroke:none"
         d="m 1314.61,171.66 h 20.96 v 214.531 h -20.96 V 171.66" /><path
         id="path30"
         style="fill:#42a6a3;fill-opacity:1;fill-rule:nonzero;stroke:none"
         d="m 1230.57,189.492 h 20.45 v 188.496 h -20.45 V 189.492" /><path
         id="path32"
         style="fill:#42a6a3;fill-opacity:1;fill-rule:nonzero;stroke:none"
         d="m 1150.82,302.188 c 0,-72.032 -13.24,-93.477 -28.16,-112.95 l 15.17,-16.367 c 18.56,19.961 33.97,49.141 33.97,128.594 v 84.726 h -20.98 v -84.003" /><path
         id="path34"
         style="fill:#42a6a3;fill-opacity:1;fill-rule:nonzero;stroke:none"
         d="m 1505.59,257.871 h -65.26 v 17.324 h 65.26 z m 0,-32.266 h -66 v 18.77 h 66 z m 19.04,18.77 h 65.98 v -18.77 h -65.98 z m 0,30.82 h 65.98 v -17.324 h -65.98 z m 0,-76.074 v 11.309 h 85.51 v 79.258 H 1420.59 V 210.43 h 85 v -19.024 c 0,-14.941 9.39,-17.09 21.68,-17.09 h 91.13 v 17.344 h -86.06 c -7.46,0 -7.71,1.914 -7.71,7.461" /><path
         id="path36"
         style="fill:#42a6a3;fill-opacity:1;fill-rule:nonzero;stroke:none"
         d="m 1493.54,333.965 h -52.02 v -11.309 h 52.02 v 11.309" /><path
         id="path38"
         style="fill:#42a6a3;fill-opacity:1;fill-rule:nonzero;stroke:none"
         d="m 1441.52,300.488 h 52.02 v 11.817 h -52.02 v -11.817" /><path
         id="path40"
         style="fill:#42a6a3;fill-opacity:1;fill-rule:nonzero;stroke:none"
         d="m 1537.38,300.488 h 52.52 v 11.817 h -52.52 v -11.817" /><path
         id="path42"
         style="fill:#42a6a3;fill-opacity:1;fill-rule:nonzero;stroke:none"
         d="m 1524.36,370.84 h 87.44 v 16.113 H 1419.63 V 370.84 h 86.19 v -11.817 h -97.25 v -49.628 h 19.5 v 35.175 h 77.75 v -47.207 h 18.54 v 47.207 h 78.04 v -35.175 h 20.24 v 49.628 h -98.28 v 11.817" /><path
         id="path44"
         style="fill:#42a6a3;fill-opacity:1;fill-rule:nonzero;stroke:none"
         d="m 1589.9,333.965 h -52.52 v -11.309 h 52.52 v 11.309" /><path
         id="path46"
         style="fill:#42a6a3;fill-opacity:1;fill-rule:nonzero;stroke:none"
         d="m 1725.72,256.66 v 14.942 h 133.91 V 256.66 Z m 96.8,-28.887 h -58.14 l 2.65,14.434 h 55.49 z m -96.8,71.27 h 133.91 v -13.965 h -133.91 z m 0,27.246 h 133.91 v -13.984 h -133.91 z m 116.33,-98.516 v 14.434 h 36.13 v 98.496 H 1851 v 23.613 h 51.27 v 16.622 h -77.33 c 1.92,4.335 2.89,6.738 4.83,12.285 l -19.07,3.828 c -8.41,-23.106 -23.08,-37.305 -31.75,-45.02 l 15.89,-11.074 c 5.53,5.313 12.29,11.777 20.24,23.359 h 15.41 0.76 v -23.613 h -67.48 v 23.613 h 23.34 v 16.622 h -57.52 c 2.15,3.847 3.13,6.738 5.29,12.285 l -19.27,3.828 c -6.74,-19.492 -19.98,-36.836 -36.37,-49.824 l 13.98,-13.731 c 6.49,5.527 14.46,12.051 26.96,30.82 h 8.92 14.94 v -23.613 h -37.11 v -98.496 h 41.08 l -2.66,-14.434 h -64.41 v -16.386 h 61.44 l -2.22,-12.227 c -1.02,-5.527 -1.6,-7.48 -9.09,-7.48 h -35.44 l -3.17,-17.305 h 40.51 c 12.27,0 22.07,2.148 24.78,17.07 l 3.64,19.942 h 61.13 v -40.469 h 19.53 v 40.469 h 61.9 v 16.386 h -61.9" /><path
         id="path48"
         style="fill:#42a6a3;fill-opacity:1;fill-rule:nonzero;stroke:none"
         d="m 701.348,100.82 21.328,25.196 h 12.617 L 711.68,99.0625 737.344,67.5195 H 724.297 L 701.348,97.2461 V 67.5195 h -10.352 v 58.4965 h 10.352 V 100.82" /><path
         id="path50"
         style="fill:#42a6a3;fill-opacity:1;fill-rule:nonzero;stroke:none"
         d="M 783.457,111.152 V 67.5195 h -9.375 v 4.8633 c -1.035,-1.4062 -4.551,-6.0156 -12.383,-6.0156 -7.344,0 -11.23,4.2383 -12.617,7.1094 -1.699,3.3007 -1.973,6.582 -1.973,13.125 v 24.5504 h 9.668 V 86.3867 c 0,-4.8633 0,-11.1719 7.618,-11.1719 1.269,0 9.394,0.293 9.394,11.1719 v 24.7653 h 9.668" /><path
         id="path52"
         style="fill:#42a6a3;fill-opacity:1;fill-rule:nonzero;stroke:none"
         d="m 797.773,67.5195 v 43.6325 h 9.356 v -4.843 c 4.336,6.523 11.309,6.113 13.281,5.957 v -8.809 c -6.816,0.371 -12.969,-1.777 -12.969,-11.582 V 67.5195 h -9.668" /><path
         id="path54"
         style="fill:#42a6a3;fill-opacity:1;fill-rule:nonzero;stroke:none"
         d="M 868.34,111.152 V 67.5195 h -9.375 v 4.8633 c -1.016,-1.4062 -4.531,-6.0156 -12.383,-6.0156 -7.324,0 -11.211,4.2383 -12.598,7.1094 -1.699,3.3007 -1.992,6.582 -1.992,13.125 v 24.5504 h 9.688 V 86.3867 c 0,-4.8633 0,-11.1719 7.636,-11.1719 1.231,0 9.356,0.293 9.356,11.1719 v 24.7653 h 9.668" /><path
         id="path56"
         style="fill:#42a6a3;fill-opacity:1;fill-rule:nonzero;stroke:none"
         d="m 907.5,100.527 c -2.91,1.758 -6.152,2.93 -9.746,2.93 -2.422,0 -6.367,-0.801 -6.367,-4.4726 0,-3.1641 1.543,-3.6719 9.902,-6.2891 4.258,-1.3281 11.211,-3.75 11.211,-12.5586 0,-9.8437 -8.867,-13.7695 -18.105,-13.7695 -1.543,0 -8.301,0 -14.825,3.7891 l 3.223,8.5156 c 1.699,-1.0352 5.801,-3.4571 12.031,-3.4571 7.051,0 8.008,3.5547 8.008,5.0586 0,3.3204 -2.129,4.043 -9.844,6.4063 -5.429,1.6601 -11.269,4.375 -11.269,12.3828 0,7.7735 6.367,13.2425 15.84,13.2425 4.531,0 8.418,-1.075 12.461,-3.067 l -2.52,-8.711" /><path
         id="path58"
         style="fill:#42a6a3;fill-opacity:1;fill-rule:nonzero;stroke:none"
         d="M 960.742,111.152 V 67.5195 h -9.394 v 4.8633 c -1.016,-1.4062 -4.551,-6.0156 -12.383,-6.0156 -7.344,0 -11.211,4.2383 -12.617,7.1094 -1.68,3.3007 -1.973,6.582 -1.973,13.125 v 24.5504 h 9.668 V 86.3867 c 0,-4.8633 0,-11.1719 7.637,-11.1719 1.25,0 9.394,0.293 9.394,11.1719 v 24.7653 h 9.668" /><path
         id="path60"
         style="fill:#42a6a3;fill-opacity:1;fill-rule:nonzero;stroke:none"
         d="m 983.984,97.0117 c 0,-4.1015 3.438,-6.9726 8.204,-6.9726 4.843,0 8.282,2.8711 8.282,7.207 0,3.6329 -2.56,7.0899 -8.126,7.0899 -5.117,0 -8.36,-3.203 -8.36,-7.3243 z m 6.68,-28.0078 c -1.484,0 -8.73,0 -8.73,-6.4648 0,-5.625 6.718,-6.4258 10.781,-6.4258 5.41,0 11.135,1.6797 11.135,6.6406 0,5 -4.983,6.25 -13.186,6.25 z m 23.676,34.5901 c -0.67,0.156 -1.33,0.39 -2.43,0.39 -1.6,0 -2.61,-0.468 -3.35,-0.761 0.5,-1.075 1.3,-3.067 1.3,-6.4457 0,-10.2539 -8.71,-14.5898 -17.458,-14.5898 -1.894,0 -3.144,0.2344 -4.023,0.3711 C 985,81.1523 985,79.3945 985,79.1797 c 0,-1.3086 1.465,-1.7578 2.051,-1.8945 1.406,-0.4297 4.199,-0.586 8.789,-0.8204 4.92,-0.2929 17.7,-0.957 17.7,-13.6328 0,-13.2226 -14.751,-14.8047 -21.431,-14.8047 -14.14,0 -19.863,6.6016 -19.863,13.8477 0,6.9141 5.059,10.1953 6.524,11.1523 -1.387,0.9766 -3.516,2.4805 -3.516,5.7422 0,3.3008 2.5,5.6836 4.766,7.1485 -5.411,4.3554 -5.411,9.3359 -5.411,11.3281 0,9.0039 7.383,15.0589 17.579,15.0589 3.144,0 6.835,-0.645 9.982,-2.266 3.44,2.266 7.26,2.266 7.99,2.266 2.13,0 3.08,-0.332 4.18,-0.703 v -8.008" /><path
         id="path62"
         style="fill:#42a6a3;fill-opacity:1;fill-rule:nonzero;stroke:none"
         d="m 1050.92,89.0234 c -2.17,-1.0351 -2.79,-1.1132 -8.15,-1.8359 -4.61,-0.5859 -10.41,-1.3086 -10.41,-7.1289 0,-2.9297 1.84,-5.4102 6.1,-5.4102 0.88,0 7.91,0 12.46,7.3243 z m -24.04,19.4146 c 4.76,2.558 9.53,3.867 14.96,3.867 4.25,0 11.07,-0.703 15.41,-5.782 2.09,-2.539 3.06,-5.703 3.06,-11.6597 V 77.5 c 0,-6.2305 1.02,-8.5742 1.68,-9.9805 h -9.43 c -0.61,1.2696 -0.92,2.3633 -0.98,4.4922 -5.56,-5.5859 -11.87,-5.6445 -13.79,-5.6445 -7.61,0 -14.59,4.3945 -14.59,13.3398 0,12.6953 12.7,14.375 20.69,15.4102 4.76,0.6641 6.87,0.8789 6.87,3.5937 0,2.7731 -2.85,4.9611 -8.63,4.9611 -5.27,0 -9.98,-1.66 -14.45,-4.4532 l -0.8,9.2192" /><path
         id="path64"
         style="fill:#42a6a3;fill-opacity:1;fill-rule:nonzero;stroke:none"
         d="m 1117.13,77.8125 9.1,33.3395 h 9.81 L 1123.3,67.5195 h -11.74 l -8,34.1605 -7.97,-34.1605 h -11.74 l -12.74,43.6325 h 9.81 l 9.1,-33.3395 7.75,33.3395 h 11.64 l 7.72,-33.3395" /><path
         id="path66"
         style="fill:#42a6a3;fill-opacity:1;fill-rule:nonzero;stroke:none"
         d="m 1172.21,89.0234 c -2.21,-1.0351 -2.81,-1.1132 -8.17,-1.8359 -4.61,-0.5859 -10.41,-1.3086 -10.41,-7.1289 0,-2.9297 1.84,-5.4102 6.1,-5.4102 0.88,0 7.89,0 12.48,7.3243 z m -24.08,19.4146 c 4.78,2.558 9.55,3.867 14.96,3.867 4.27,0 11.07,-0.703 15.41,-5.782 2.13,-2.539 3.08,-5.703 3.08,-11.6597 V 77.5 c 0,-6.2305 1.02,-8.5742 1.68,-9.9805 h -9.43 c -0.61,1.2696 -0.9,2.3633 -0.98,4.4922 -5.58,-5.5859 -11.89,-5.6445 -13.79,-5.6445 -7.61,0 -14.59,4.3945 -14.59,13.3398 0,12.6953 12.68,14.375 20.69,15.4102 4.76,0.6641 6.89,0.8789 6.89,3.5937 0,2.7731 -2.87,4.9611 -8.65,4.9611 -5.29,0 -9.96,-1.66 -14.47,-4.4532 l -0.8,9.2192" /><path
         id="path68"
         style="fill:#42a6a3;fill-opacity:1;fill-rule:nonzero;stroke:none"
         d="m 1273.79,70.6055 c -2.03,-1.0352 -8.4,-4.2383 -18.54,-4.2383 -20.37,0 -31.17,14.0625 -31.17,30.2734 0,18.7504 13.87,30.5664 31.17,30.5664 6.68,0 12.91,-1.758 18.54,-5.508 l -3.36,-9.433 c -2.32,1.972 -6.5,5.468 -15.18,5.468 -13.26,0 -20.82,-9.433 -20.82,-20.9567 0,-10.5664 6.45,-20.957 21.57,-20.957 9.29,0 14.94,3.9649 17.79,5.8594 V 70.6055" /><path
         id="path70"
         style="fill:#42a6a3;fill-opacity:1;fill-rule:nonzero;stroke:none"
         d="m 1306,75.2148 c 4.82,0 11.95,3.1055 11.95,14.1797 0,10.9765 -7.13,14.0625 -11.88,14.0625 -4.62,0 -11.95,-2.852 -11.95,-14.0625 0,-11.289 7.33,-14.1797 11.88,-14.1797 z m 0.07,37.0902 c 11.51,0 21.57,-8.789 21.57,-22.9105 0,-14.2382 -10.06,-23.0273 -21.64,-23.0273 -11.45,0 -21.55,8.7305 -21.55,23.0273 0,14.2775 10.18,22.9105 21.62,22.9105" /><path
         id="path72"
         style="fill:#42a6a3;fill-opacity:1;fill-rule:nonzero;stroke:none"
         d="m 1365.29,67.5195 v 25.1758 c 0,4.2383 -0.21,10.7617 -6.6,10.7617 -3.06,0 -8.85,-1.836 -8.85,-10.5468 V 67.5195 h -9.68 v 43.6325 h 9.39 v -4.843 c 1.17,1.621 4.53,5.996 11.56,5.996 7.41,0 10.22,-4.825 11.29,-6.817 3.83,5 8.6,6.817 13.5,6.817 4.26,0 10.06,-1.739 12.54,-6.895 1.62,-3.262 1.83,-6.6991 1.83,-12.0702 V 67.5195 h -9.68 v 25.1758 c 0,3.8672 0,10.7617 -6.88,10.7617 -4.92,0 -8.73,-3.5156 -8.73,-11.3672 V 67.5195 h -9.69" /><path
         id="path74"
         style="fill:#42a6a3;fill-opacity:1;fill-rule:nonzero;stroke:none"
         d="m 1435.39,75.2148 c 7.66,0 11.15,6.4649 11.15,14.1797 0,7.5391 -3.49,14.0625 -11.15,14.0625 -3.73,0 -11.35,-1.973 -11.35,-14.0625 0,-12.2656 7.7,-14.1797 11.35,-14.1797 z m -11.42,31.1722 c 2.28,2.422 5.64,5.918 12.96,5.918 12.02,0 19.3,-10.293 19.3,-23.0081 0,-11.875 -6.68,-22.9297 -19.33,-22.9297 -6.65,0 -10.59,3.4375 -12.64,5.4883 V 48.0273 h -9.67 v 63.1247 h 9.38 v -4.765" /><path
         id="path76"
         style="fill:#42a6a3;fill-opacity:1;fill-rule:nonzero;stroke:none"
         d="M 1504.9,111.152 V 67.5195 h -9.39 v 4.8633 c -1.04,-1.4062 -4.53,-6.0156 -12.38,-6.0156 -7.35,0 -11.22,4.2383 -12.62,7.1094 -1.7,3.3007 -1.97,6.582 -1.97,13.125 v 24.5504 h 9.66 V 86.3867 c 0,-4.8633 0,-11.1719 7.64,-11.1719 1.23,0 9.38,0.293 9.38,11.1719 v 24.7653 h 9.68" /><path
         id="path78"
         style="fill:#42a6a3;fill-opacity:1;fill-rule:nonzero;stroke:none"
         d="m 1521.04,123.75 h 9.66 v -12.598 h 12.27 v -8.867 H 1530.7 V 81.25 c 0,-3.75 0.45,-6.0352 5.59,-6.0352 2.19,0 4.75,0.3711 6,0.5274 v -8.8086 c -1.33,-0.1367 -4.46,-0.5664 -8.21,-0.5664 -13.04,0 -13.04,7.7539 -13.04,14.2969 v 21.6209 h -5.22 v 8.867 h 5.22 v 12.598" /><path
         id="path80"
         style="fill:#42a6a3;fill-opacity:1;fill-rule:nonzero;stroke:none"
         d="m 1582.32,93.6328 c -1.09,9.8242 -8.35,10.2732 -10.27,10.2732 -1.62,0 -9,-0.39 -10.33,-10.2732 z m -20.74,-7.4219 c 0.28,-2.832 1.1,-11.2695 13.26,-11.2695 6.39,0 10.12,1.7578 13.64,3.5938 v -9.3946 c -2.19,-0.8789 -6.88,-2.7734 -14.08,-2.7734 -18.33,0 -22.43,13.8476 -22.43,22.6562 0,13.7696 8.36,23.2816 20.24,23.2816 4.78,0 13.49,-1.739 17.6,-11.856 1.91,-4.5506 2.2,-9.9217 2.12,-14.2381 h -30.35" /><path
         id="path82"
         style="fill:#42a6a3;fill-opacity:1;fill-rule:nonzero;stroke:none"
         d="m 1604.53,67.5195 v 43.6325 h 9.4 v -4.843 c 4.31,6.523 11.29,6.113 13.28,5.957 v -8.809 c -6.82,0.371 -12.99,-1.777 -12.99,-11.582 V 67.5195 h -9.69" /><path
         id="path84"
         style="fill:#42a6a3;fill-opacity:1;fill-rule:nonzero;stroke:none"
         d="M 1691.11,126.016 V 67.5195 h -10.56 v 58.4965 h 10.56" /><path
         id="path86"
         style="fill:#42a6a3;fill-opacity:1;fill-rule:nonzero;stroke:none"
         d="m 1706.37,67.5195 v 43.6325 h 9.29 v -4.765 c 1.12,1.328 4.65,5.918 12.49,5.918 7.34,0 11.21,-4.16 12.59,-7.012 1.7,-3.379 2,-6.6797 2,-13.2032 V 67.5195 h -9.71 v 24.8047 c 0,4.9219 0,11.1328 -7.6,11.1328 -1.25,0 -9.39,-0.234 -9.39,-11.1328 V 67.5195 h -9.67" /><path
         id="path88"
         style="fill:#42a6a3;fill-opacity:1;fill-rule:nonzero;stroke:none"
         d="m 1791.19,69.3555 c -1.76,-0.8789 -5.94,-2.9883 -13.2,-2.9883 -14.61,0 -22.93,9.1406 -22.93,22.7148 0,14.512 9.96,23.223 22.58,23.223 7.48,0 11.99,-2.852 13.55,-3.867 l -2.5,-8.5747 c -1.31,1.0157 -4.69,3.5937 -10.41,3.5937 -8.14,0 -13.63,-5.4882 -13.63,-14.0625 0,-7.5781 4.02,-14.1797 13.85,-14.1797 6.52,0 10.54,2.5977 12.69,3.8868 v -9.7461" /><path
         id="path90"
         style="fill:#42a6a3;fill-opacity:1;fill-rule:nonzero;stroke:none"
         d="M 1815.24,79.1797 V 67.5195 h -11.51 v 11.6602 h 11.51" /></g></g></svg>