<?xml version="1.0" encoding="UTF-8" standalone="no"?>
<!DOCTYPE svg PUBLIC "-//W3C//DTD SVG 1.1//EN" "http://www.w3.org/Graphics/SVG/1.1/DTD/svg11.dtd">
<svg width="100%" height="100%" viewBox="0 0 512 512" version="1.1" xmlns="http://www.w3.org/2000/svg" xmlns:xlink="http://www.w3.org/1999/xlink" xml:space="preserve" xmlns:serif="http://www.serif.com/" style="fill-rule:evenodd;clip-rule:evenodd;stroke-linejoin:round;stroke-miterlimit:2;">
    <g id="vector-version" serif:id="vector version" transform="matrix(1,0,0,1,4,4)">
        <path d="M469.842,214.462C466.776,216.147 467.845,216.916 467.064,220.281C466.089,224.478 460.118,235.329 449.397,241.316C320.456,313.319 304.627,323.508 283.287,335.073C263.323,345.891 240.376,344.161 223.705,335.128C214.857,330.334 128.881,283.752 113.251,274.934C52.97,240.925 49.973,243.887 40.979,229.22C37.314,223.242 40.159,221.877 35.647,216.513C35.819,211.155 36.218,198.697 35.41,149.501C34.933,120.483 44.499,115.565 77.439,97.387C96.07,87.106 177.098,41.33 177.341,41.199C219.24,18.54 231.624,4.649 261.459,8.823C275.558,10.795 275.083,12.619 400.268,79.932C451.379,107.415 451.459,107.484 455.27,110.79C475.471,128.316 466.946,145.252 469.842,214.462Z" style="fill:rgb(247,214,126);"/>
        <path d="M469.842,214.462C469.213,231.233 469.626,231.219 470.4,309.5C470.87,357.127 473.617,373.284 454.831,386.949C448.734,391.385 339.586,452.426 309.778,468.991C285.179,482.661 260.948,502.711 222.407,481.671C194.293,466.324 92.42,411.434 88.606,409.307C62.095,394.531 37.484,387.159 37.215,358.502C36.546,287.432 36.951,287.504 35.647,216.513C40.159,221.877 37.314,223.242 40.979,229.22C49.973,243.887 52.97,240.925 113.251,274.934C128.881,283.752 214.857,330.334 223.705,335.128C240.376,344.161 263.323,345.891 283.287,335.073C304.627,323.508 320.456,313.319 449.397,241.316C460.118,235.329 466.089,224.478 467.064,220.281C467.845,216.916 466.776,216.147 469.842,214.462Z" style="fill:rgb(152,149,97);"/>
        <path d="M336.304,142.829C393.902,174.93 379.782,245.417 302.442,259.126C257.692,267.057 233.957,249.61 200.365,230.738C160.759,208.485 140.151,203.112 130.805,170.415C114.542,113.517 200.767,67.175 266.67,104.214C272.223,107.335 272.292,107.062 336.304,142.829Z" style="fill:rgb(151,148,95);"/>
        <path d="M233.559,204.4C202.522,187.189 196.914,185.906 195.118,177.584C192.436,165.159 205.372,159.903 205.634,159.751C233.453,143.719 242.518,135.621 265.264,148.922C300.017,169.245 302.1,168.264 303.867,176.415C306.417,188.179 294.603,193.51 293.345,194.243C263.006,211.905 255.512,217.153 233.559,204.4Z" style="fill:rgb(247,214,125);"/>
    </g>
</svg>
