<?xml version="1.0" encoding="UTF-8"?>
<svg xmlns="http://www.w3.org/2000/svg" viewBox="0 0 500 500">
  <defs>
    <style>
      .cls-1 {
        fill-rule: evenodd;
      }

      .cls-1, .cls-2 {
        fill: #eeb00e;
      }

      .cls-3 {
        fill: #fff;
      }

      .cls-4 {
        fill: #092846;
      }

      .cls-5 {
        fill: #f1890e;
      }
    </style>
  </defs>
  <g id="_背景" data-name="背景">
    <rect class="cls-4" width="500" height="500"/>
  </g>
  <g id="_レイヤー_2" data-name="レイヤー 2">
    <g>
      <g>
        <g id="Native">
          <path class="cls-5" d="M199.61,210.3c-4.67-2.76-13.52-4.53-22.6-4.53-11.85,0-20.48,2-26.68,6.2-5.43,3.55-7.86,6.98-10.52,14.61l25.13,3.88c1.89-5.42,4.88-7.52,10.74-7.52s8.87,2.43,8.87,6.74v2.99c-9.19.22-17.62.66-21.7,1.22-6.43.88-13.06,2.88-16.84,5.08-6.75,3.88-9.85,9.52-9.85,17.61s2.98,14.05,8.64,18.26c4.2,3.11,10.62,4.76,18.16,4.76,5.53,0,11.07-1.1,15.16-2.88,2.33-1.1,3.89-2.32,6.43-5.2v6.19h25.35v-46.82c0-9.62-3.43-16.37-10.29-20.59ZM184.54,252.03c0,5.87-6.54,10.95-14.07,10.95-5.09,0-8.2-2.44-8.2-6.53,0-3.77,2.44-5.98,8.3-7.42,3-.77,6.31-1.11,13.96-1.32v4.31Z"/>
          <path class="cls-5" d="M334.4,279.62c-.56-2.8-26.69-73.85-26.69-73.85h24.68l16.73,49.9,16.72-49.9h24.69s-26.25,71.05-26.69,73.85h-29.44Z"/>
          <path class="cls-5" d="M413.05,249.1c.55,3.65,1.21,5.53,2.88,7.53,2.21,2.77,5.43,4.1,9.63,4.1,3.77,0,7.2-1,9.41-2.88,1.77-1.33,2.55-2.66,3.54-5.42l23.14,6.2c-2.88,6.31-4.65,8.96-7.75,11.95-6.64,6.53-16.05,9.96-27.35,9.96-9.62,0-18.37-2.43-24.36-6.86-9.4-6.76-14.5-17.71-14.5-31.1,0-22.8,15.06-37.96,37.76-37.96,15.61,0,28.01,7.52,33.09,20.14,2.67,6.31,3.77,11.96,4.12,20.37q.1,2.65.21,3.98h-49.82ZM437.62,233.61c-1.21-5.98-5.42-9.19-12.07-9.19-4.2,0-7.76,1.55-10.08,4.43-1,1.33-1.54,2.32-2.21,4.76h24.35Z"/>
          <path class="cls-5" d="M267.03,257.49c-2.33,1.22-4.1,1.66-6.86,1.66-7.03,0-7.32-6.41-7.32-6.41v-24.71h13.65v-20.8h-13.65v-17.69h-25.58v17.69h-13.45v20.8h13.45v31.46c0,13.72,7.64,19.81,25.03,19.81,6.64,0,11.62-.67,16.05-2.1l-1.33-19.7Z"/>
          <g>
            <rect class="cls-5" x="276.41" y="184.9" width="25.5" height="17.8"/>
            <rect class="cls-5" x="276.41" y="209.56" width="25.5" height="69.86"/>
          </g>
          <polygon class="cls-5" points="102 182.58 102 233.84 68.48 182.58 68.48 182.58 41.11 182.58 41.11 279.15 68.48 279.15 68.48 228.22 102 279.15 129.39 279.15 129.39 182.58 102 182.58"/>
        </g>
        <g id="Camp">
          <path class="cls-3" d="M127.71,362.32c-2.44,11.07-5.09,16.71-10.42,22.47-7.2,7.97-17.93,12.06-31.66,12.06-30.12,0-48.5-18.81-48.5-49.92s18.15-49.14,48.6-49.14c14.18,0,26.02,5.31,33.56,15.06,3.87,5.08,5.53,8.96,7.2,16.93l-27.24,4.98c-.67-3.98-1.56-6.19-3.66-8.74-2.88-3.54-6.87-5.53-11.18-5.53-12.63,0-19.5,9.3-19.5,26.35,0,9.74,2.44,17.37,6.99,21.91,3.21,3.1,7.75,4.98,12.18,4.98s8.28-1.44,11.17-4.2c3.1-2.88,4.32-5.75,4.87-10.97l27.58,3.77Z"/>
          <path class="cls-3" d="M196.79,327.83c-4.65-2.77-13.5-4.54-22.58-4.54-11.85,0-20.49,1.99-26.69,6.21-5.42,3.53-7.85,6.97-10.52,14.6l25.14,3.88c1.88-5.42,4.86-7.52,10.74-7.52s8.86,2.44,8.86,6.74v2.99c-9.19.22-17.62.67-21.7,1.22-6.43.88-13.06,2.88-16.83,5.1-6.75,3.87-9.86,9.52-9.86,17.6s3,14.06,8.64,18.26c4.2,3.1,10.62,4.76,18.16,4.76,5.53,0,11.07-1.1,15.17-2.87,2.31-1.11,3.87-2.32,6.42-5.21v6.2h25.35v-46.82c0-9.62-3.44-16.38-10.29-20.58ZM181.74,369.55c0,5.87-6.54,10.96-14.06,10.96-5.1,0-8.2-2.43-8.2-6.53,0-3.76,2.45-5.97,8.29-7.41,3-.77,6.32-1.1,13.96-1.33v4.31Z"/>
          <path class="cls-3" d="M341.99,412.4v-89.1h26.24v5.65c3.1-2.88,4.77-3.98,7.87-5.2,4.3-1.88,9.4-2.77,14.83-2.77,10.3,0,19.05,3.21,24.92,9.07,5.97,5.87,8.96,14.73,8.96,26.01s-3.53,21.36-10.06,28c-6.1,5.98-14.62,9.3-23.92,9.3-5.2,0-10.19-1-14.72-3.1-3.22-1.43-4.87-2.54-7.87-5.65v27.79s-26.24,0-26.24,0ZM398.67,356.72c0-10.29-5.42-16.04-15.17-16.04-8.53,0-15.16,7.3-15.16,16.61s6.64,16.16,15.51,16.16,14.82-6.31,14.82-16.72Z"/>
          <path class="cls-3" d="M296.49,324.7c-8.32,0-15.94,2.94-21.93,7.83-5.98-4.89-13.61-7.83-21.92-7.83-3.18,0-6.26.47-9.19,1.28v-2.68h-25.49v72.23h25.49v-36.16c0-5.05,4.13-9.17,9.19-9.17s9.18,4.12,9.18,9.17v36.16h25.49v-36.16c0-5.05,4.13-9.17,9.19-9.17s9.18,4.12,9.18,9.17v36.16h25.49v-36.16c0-19.12-15.54-34.67-34.67-34.67Z"/>
          <path class="cls-3" d="M460.5,379.07c0,7.76-6.28,14.05-14.05,14.05s-14.04-6.29-14.04-14.05,6.28-14.04,14.04-14.04,14.05,6.29,14.05,14.04Z"/>
        </g>
      </g>
      <g>
        <g>
          <path class="cls-1" d="M309.44,71.69c-4.66,0-8.46,3.8-8.46,8.46,0,1.91.64,3.67,1.71,5.09l-23.38,16.15-25.9-24.97c3.68-1.39,6.31-4.95,6.31-9.1,0-5.35-4.36-9.72-9.71-9.72s-9.72,4.37-9.72,9.72c0,4.15,2.63,7.71,6.31,9.1l-25.9,24.97-23.38-16.15c1.07-1.42,1.71-3.18,1.71-5.09,0-4.66-3.8-8.46-8.46-8.46s-8.45,3.8-8.45,8.46,3.79,8.45,8.45,8.45c.53,0,1.05-.05,1.56-.14l13.04,49.36h89.67l13.04-49.36c.51.09,1.03.14,1.56.14,2.33,0,4.44-.95,5.97-2.48s2.48-3.64,2.48-5.97c0-4.66-3.8-8.46-8.45-8.46ZM263.76,130.08h-27.44v-6.48l8.18-1v-19.54l-7.72.79v-6.14l18.79-5.11v29.98l8.19,1.02v6.48Z"/>
          <rect class="cls-2" x="206.33" y="144.14" width="87.4" height="9.5"/>
        </g>
        <g>
          <path class="cls-2" d="M142.48,104.08l5.48,11.11,12.26,1.78-8.87,8.65,2.09,12.21-10.97-5.76-10.97,5.76,2.1-12.21-8.87-8.65,12.26-1.78,5.48-11.11Z"/>
          <path class="cls-2" d="M357.52,104.08l5.48,11.11,12.26,1.78-8.87,8.65,2.09,12.21-10.97-5.76-10.97,5.76,2.1-12.21-8.87-8.65,12.26-1.78,5.48-11.11Z"/>
        </g>
      </g>
    </g>
  </g>
</svg>