<?xml version="1.0" encoding="UTF-8" standalone="no"?>
<svg
   xmlns:dc="http://purl.org/dc/elements/1.1/"
   xmlns:cc="http://creativecommons.org/ns#"
   xmlns:rdf="http://www.w3.org/1999/02/22-rdf-syntax-ns#"
   xmlns:svg="http://www.w3.org/2000/svg"
   xmlns="http://www.w3.org/2000/svg"
   viewBox="0 0 673.8667 225.21333"
   height="225.21333"
   width="673.8667"
   xml:space="preserve"
   id="svg2"
   version="1.1"><metadata
     id="metadata8"><rdf:RDF><cc:Work
         rdf:about=""><dc:format>image/svg+xml</dc:format><dc:type
           rdf:resource="http://purl.org/dc/dcmitype/StillImage" /></cc:Work></rdf:RDF></metadata><defs
     id="defs6"><clipPath
       id="clipPath20"
       clipPathUnits="userSpaceOnUse"><path
         id="path18"
         d="M 10.75,604.34 H 130.801 C 143.023,512.84 194.27,435.711 303.391,469.281 524.102,579.66 186.172,677.082 145.824,716.902 -206.93,873.668 484.516,1406.82 359.68,885.719 336.098,997.848 279.82,1035.36 190.836,998.289 23.3828,881.063 316.539,801.383 363.43,765.652 792.148,551.32 53.6172,15.0586 10.75,604.34" /></clipPath><linearGradient
       id="linearGradient28"
       spreadMethod="pad"
       gradientTransform="matrix(386.652,-646.648,-646.648,-386.652,43.5102,1026.84)"
       gradientUnits="userSpaceOnUse"
       y2="0"
       x2="1"
       y1="0"
       x1="0"><stop
         id="stop22"
         offset="0"
         style="stop-opacity:1;stop-color:#fbe919" /><stop
         id="stop24"
         offset="0.4749085"
         style="stop-opacity:1;stop-color:#fbe919" /><stop
         id="stop26"
         offset="1"
         style="stop-opacity:1;stop-color:#ec5672" /></linearGradient><clipPath
       id="clipPath40"
       clipPathUnits="userSpaceOnUse"><path
         id="path38"
         d="m 558.516,915.738 h 56.281 V 1095.82 H 723.59 V 915.738 h 75.043 V 806.941 H 723.59 V 488.039 c 17.344,-31.527 43.609,-41.527 78.789,-30.019 V 349.219 h -71.293 c -175.32,0 -144.777,353.601 -116.289,457.722 -73.352,-6.632 -75.391,43.895 -56.281,108.797" /></clipPath><linearGradient
       id="linearGradient48"
       spreadMethod="pad"
       gradientTransform="matrix(333.336,-626.671,-626.671,-333.336,562.696,969.754)"
       gradientUnits="userSpaceOnUse"
       y2="0"
       x2="1"
       y1="0"
       x1="0"><stop
         id="stop42"
         offset="0"
         style="stop-opacity:1;stop-color:#fbe919" /><stop
         id="stop44"
         offset="0.4749085"
         style="stop-opacity:1;stop-color:#fbe919" /><stop
         id="stop46"
         offset="1"
         style="stop-opacity:1;stop-color:#ec5672" /></linearGradient><clipPath
       id="clipPath60"
       clipPathUnits="userSpaceOnUse"><path
         id="path58"
         d="m 1413.91,1122.09 h 112.56 V 349.219 C 1347.35,489.148 1413.91,811.98 1413.91,1122.09" /></clipPath><linearGradient
       id="linearGradient66"
       spreadMethod="pad"
       gradientTransform="matrix(293.32,-526.643,-526.643,-293.32,1426.46,894.029)"
       gradientUnits="userSpaceOnUse"
       y2="0"
       x2="1"
       y1="0"
       x1="0"><stop
         id="stop62"
         offset="0"
         style="stop-opacity:1;stop-color:#fbe919" /><stop
         id="stop64"
         offset="1"
         style="stop-opacity:1;stop-color:#ec5672" /></linearGradient><clipPath
       id="clipPath78"
       clipPathUnits="userSpaceOnUse"><path
         id="path76"
         d="m 1635.26,1122.09 h 112.56 V 349.219 C 1568.71,489.148 1635.26,811.98 1635.26,1122.09" /></clipPath><linearGradient
       id="linearGradient84"
       spreadMethod="pad"
       gradientTransform="matrix(233.319,-459.969,-459.969,-233.319,1658.04,885.153)"
       gradientUnits="userSpaceOnUse"
       y2="0"
       x2="1"
       y1="0"
       x1="0"><stop
         id="stop80"
         offset="0"
         style="stop-opacity:1;stop-color:#fbe919" /><stop
         id="stop82"
         offset="1"
         style="stop-opacity:1;stop-color:#ec5672" /></linearGradient><clipPath
       id="clipPath96"
       clipPathUnits="userSpaceOnUse"><path
         id="path94"
         d="M 3402.19,349.219 V 1122.09 H 3518.5 V 473.031 h 311.41 C 3796.83,296.02 3608.64,290.922 3402.19,349.219" /></clipPath><linearGradient
       id="linearGradient102"
       spreadMethod="pad"
       gradientTransform="matrix(353.35,-373.341,-373.341,-353.35,3488.39,706.02)"
       gradientUnits="userSpaceOnUse"
       y2="0"
       x2="1"
       y1="0"
       x1="0"><stop
         id="stop98"
         offset="0"
         style="stop-opacity:1;stop-color:#fbe919" /><stop
         id="stop100"
         offset="1"
         style="stop-opacity:1;stop-color:#ec5672" /></linearGradient><clipPath
       id="clipPath114"
       clipPathUnits="userSpaceOnUse"><path
         id="path112"
         d="M 3912.44,349.219 V 911.98 h 116.31 c 59.91,-243.921 42.02,-484.121 -116.31,-562.761 m 60.05,615.301 c -66.33,0 -79.82,104.01 -41.29,142.56 27.52,20.02 55.03,20.02 82.55,0 38.51,-38.55 25,-142.56 -41.26,-142.56" /></clipPath><linearGradient
       id="linearGradient120"
       spreadMethod="pad"
       gradientTransform="matrix(226.649,-346.653,-346.653,-226.649,3929.61,780.468)"
       gradientUnits="userSpaceOnUse"
       y2="0"
       x2="1"
       y1="0"
       x1="0"><stop
         id="stop116"
         offset="0"
         style="stop-opacity:1;stop-color:#fbe919" /><stop
         id="stop118"
         offset="1"
         style="stop-opacity:1;stop-color:#ec5672" /></linearGradient><clipPath
       id="clipPath132"
       clipPathUnits="userSpaceOnUse"><path
         id="path130"
         d="m 4126.29,930.75 h 108.79 v -86.289 c 242.3,387.679 311.19,-373.129 288.91,-495.242 h -112.58 v 341.414 c 0,329.957 -189.75,-181.031 -176.33,-341.414 C 4090.7,436.699 4068.96,687 4126.29,930.75" /></clipPath><linearGradient
       id="linearGradient138"
       spreadMethod="pad"
       gradientTransform="matrix(266.694,-253.353,-253.353,-266.694,4305.94,652.07)"
       gradientUnits="userSpaceOnUse"
       y2="0"
       x2="1"
       y1="0"
       x1="0"><stop
         id="stop134"
         offset="0"
         style="stop-opacity:1;stop-color:#fbe919" /><stop
         id="stop136"
         offset="1"
         style="stop-opacity:1;stop-color:#ec5672" /></linearGradient><clipPath
       id="clipPath150"
       clipPathUnits="userSpaceOnUse"><path
         id="path148"
         d="m 4621.51,349.219 v 772.871 h 108.81 V 716.902 L 4880.4,938.27 h 131.31 L 4857.91,720.652 5030.47,349.219 H 4902.91 L 4782.87,623.09 4730.32,548.051 C 4767,424.25 4753.41,334.281 4621.51,349.219" /></clipPath><linearGradient
       id="linearGradient156"
       spreadMethod="pad"
       gradientTransform="matrix(259.991,-326.659,-326.659,-259.991,4761.24,713.312)"
       gradientUnits="userSpaceOnUse"
       y2="0"
       x2="1"
       y1="0"
       x1="0"><stop
         id="stop152"
         offset="0"
         style="stop-opacity:1;stop-color:#fbe919" /><stop
         id="stop154"
         offset="1"
         style="stop-opacity:1;stop-color:#ec5672" /></linearGradient><clipPath
       id="clipPath168"
       clipPathUnits="userSpaceOnUse"><path
         id="path166"
         d="m 2699.51,892.527 105.07,284.203 c 15.61,35.04 31.89,35.04 48.75,0 l 96.6,-284.203 h 291.73 c 34.38,0 39.7,-15 15.93,-45 L 3032.5,661.801 3125.35,379.48 c 4.36,-33.769 -10.02,-43.761 -43.15,-30.011 L 2830.84,521.102 2579.45,349.469 c -35.01,-19.379 -51.27,-10.617 -48.78,26.269 l 98.5,276.692 -244.81,191.336 c -23.75,31.269 -15.62,47.519 24.37,48.761 z" /></clipPath><linearGradient
       id="linearGradient174"
       spreadMethod="pad"
       gradientTransform="matrix(344.856,-336.282,-336.282,-344.856,2789.78,725.353)"
       gradientUnits="userSpaceOnUse"
       y2="0"
       x2="1"
       y1="0"
       x1="0"><stop
         id="stop170"
         offset="0"
         style="stop-opacity:1;stop-color:#fbe919" /><stop
         id="stop172"
         offset="1"
         style="stop-opacity:1;stop-color:#ec5672" /></linearGradient><clipPath
       id="clipPath188"
       clipPathUnits="userSpaceOnUse"><path
         id="path186"
         d="m 2957.97,1443.86 -14.77,97.08 c -1.06,12.39 3.57,14.93 13.84,7.67 l 71.97,-65.47 82.71,45.76 c 9.74,5.4 13.63,1.99 11.58,-10.26 l -34.68,-87.99 70.59,-65.47 c 6.56,-8.89 4.05,-14.01 -7.54,-15.3 l -98.23,9.25 -44.31,-88.09 c -6.93,-10.99 -12.89,-11.05 -17.98,-0.19 l -15.46,93.9 -99.44,15.85 c -11.64,5.15 -11.85,11.05 -0.73,17.69 z" /></clipPath><linearGradient
       id="linearGradient194"
       spreadMethod="pad"
       gradientTransform="matrix(222.493,-24.9991,-24.9991,-222.493,2867.14,1419.67)"
       gradientUnits="userSpaceOnUse"
       y2="0"
       x2="1"
       y1="0"
       x1="0"><stop
         id="stop190"
         offset="0"
         style="stop-opacity:1;stop-color:#fbe919" /><stop
         id="stop192"
         offset="1"
         style="stop-opacity:1;stop-color:#ec5672" /></linearGradient><clipPath
       id="clipPath206"
       clipPathUnits="userSpaceOnUse"><path
         id="path204"
         d="m 3221.93,1504.93 c 0,0 566.93,206.76 -480.22,-780.364 C 1694.55,-262.559 2048.04,244.34 2048.04,244.34 c 0,0 -513.56,-793.731 873.75,573.586 1387.32,1367.304 300.14,687.004 300.14,687.004 z" /></clipPath><linearGradient
       id="linearGradient212"
       spreadMethod="pad"
       gradientTransform="matrix(2069.95,939.976,939.976,-2069.95,1766.45,388.78)"
       gradientUnits="userSpaceOnUse"
       y2="0"
       x2="1"
       y1="0"
       x1="0"><stop
         id="stop208"
         offset="0"
         style="stop-opacity:1;stop-color:#fbe919" /><stop
         id="stop210"
         offset="1"
         style="stop-opacity:1;stop-color:#ec5672" /></linearGradient><clipPath
       id="clipPath224"
       clipPathUnits="userSpaceOnUse"><path
         id="path222"
         d="m 1200.05,698.133 h -155.07 c 15.82,118.535 133.23,225.703 155.07,0 z M 1044.98,596.832 h 275.15 C 1222.63,880.77 1132.6,946.539 1086.08,950.379 963.164,960.445 904.805,337.801 1039.31,328.91 c 41.66,-2.75 212.24,20.961 269.56,192.899 -100.75,-58.207 -249.99,-126.368 -263.89,75.023 z" /></clipPath><linearGradient
       id="linearGradient230"
       spreadMethod="pad"
       gradientTransform="matrix(273.33,-300,-300,-273.33,1007.09,710.22)"
       gradientUnits="userSpaceOnUse"
       y2="0"
       x2="1"
       y1="0"
       x1="0"><stop
         id="stop226"
         offset="0"
         style="stop-opacity:1;stop-color:#fbe919" /><stop
         id="stop228"
         offset="1"
         style="stop-opacity:1;stop-color:#ec5672" /></linearGradient><clipPath
       id="clipPath242"
       clipPathUnits="userSpaceOnUse"><path
         id="path240"
         d="m 1967.79,513.781 c -11.07,111.27 104.3,97.571 145.93,146.77 14.01,23.5 -106.18,-397.301 -145.93,-146.77 z m 279,-14.48 c 52.76,316.254 -340.91,661.779 -378.9,243.859 h 108.76 c 5.89,93.809 137.33,126.418 137.33,12.356 0,135.195 -581.21,-501.286 27.77,-353.766 l 11.26,-52.531 c 147.45,-35.969 93.78,22.492 93.78,150.082 z" /></clipPath><linearGradient
       id="linearGradient248"
       spreadMethod="pad"
       gradientTransform="matrix(266.665,-300,-300,-266.665,1997.16,646.89)"
       gradientUnits="userSpaceOnUse"
       y2="0"
       x2="1"
       y1="0"
       x1="0"><stop
         id="stop244"
         offset="0"
         style="stop-opacity:1;stop-color:#fbe919" /><stop
         id="stop246"
         offset="1"
         style="stop-opacity:1;stop-color:#ec5672" /></linearGradient></defs><g
     transform="matrix(1.3333333,0,0,-1.3333333,0,225.21333)"
     id="g10"><g
       transform="scale(0.1)"
       id="g12"><g
         id="g14"><g
           clip-path="url(#clipPath20)"
           id="g16"><path
             id="path30"
             style="fill:url(#linearGradient28);fill-opacity:1;fill-rule:nonzero;stroke:none"
             d="M 10.75,604.34 H 130.801 C 143.023,512.84 194.27,435.711 303.391,469.281 524.102,579.66 186.172,677.082 145.824,716.902 -206.93,873.668 484.516,1406.82 359.68,885.719 336.098,997.848 279.82,1035.36 190.836,998.289 23.3828,881.063 316.539,801.383 363.43,765.652 792.148,551.32 53.6172,15.0586 10.75,604.34" /></g></g><path
         id="path32"
         style="fill:#f19e1a;fill-opacity:1;fill-rule:nonzero;stroke:none"
         d="M 21.5977,594.34 C 34.9297,445.73 96.6836,358.281 196.168,347.68 c 112.848,-11.969 250.703,82.558 283.523,194.629 25.372,86.652 -17.503,162.785 -120.738,214.398 l -1.586,0.996 c -9.187,7 -30.664,16.707 -55.527,27.957 -70.168,31.75 -166.274,75.215 -171.914,135.735 -2.699,28.933 15.863,57.566 55.172,85.085 l 1.89,1.04 c 43.36,18.07 80.36,19.3 110.004,3.72 26.653,-14.037 47.219,-41.791 61.387,-82.748 16.543,94.938 1.773,153.868 -42.781,167.468 C 241.699,1118.41 106.391,1017.1 66,908.875 44.7461,851.922 42.0469,773.961 149.887,726.043 l 1.668,-0.742 1.297,-1.281 c 8.261,-8.153 35.113,-21.172 63.543,-34.95 72.101,-34.949 170.851,-82.808 171.218,-142.019 0.196,-31.422 -25.894,-59.781 -79.754,-86.711 l -1.531,-0.621 c -45.078,-13.86 -83.824,-10.731 -115.156,9.351 -35.227,22.571 -59.551,66.86 -69.004,125.27 z M 216.461,326.621 c -7.535,0 -15.008,0.391 -22.414,1.18 -65.192,6.937 -176.9884,52.008 -193.269656,275.82 L 0,614.34 h 139.555 l 1.16,-8.668 c 7.582,-56.793 29.336,-99.32 61.242,-119.75 25.969,-16.66 58.84,-19.121 97.699,-7.32 45.239,22.738 68.098,45.73 67.957,68.32 -0.289,46.769 -96.363,93.328 -159.941,124.148 -31.184,15.121 -56.094,27.188 -67.461,37.383 C 47.543,750.309 13.6602,825.828 47.2656,915.867 91.543,1034.54 237.598,1140.7 321.43,1115.09 c 43.996,-13.42 88.023,-64.52 47.972,-231.703 l -19.507,0.273 c -12.106,57.547 -33.04,94.52 -62.219,109.871 -23.887,12.569 -54.84,11.209 -91.992,-4.062 C 163.301,966.598 147.875,944.313 149.84,923.25 154.402,874.313 248.09,831.93 310.082,803.883 336.5,791.93 357.496,782.438 368.707,774.195 479.355,718.57 526.809,632.039 498.887,536.691 465.16,421.52 334.719,326.629 216.461,326.621" /><g
         id="g34"><g
           clip-path="url(#clipPath40)"
           id="g36"><path
             id="path50"
             style="fill:url(#linearGradient48);fill-opacity:1;fill-rule:nonzero;stroke:none"
             d="m 558.516,915.738 h 56.281 V 1095.82 H 723.59 V 915.738 h 75.043 V 806.941 H 723.59 V 488.039 c 17.344,-31.527 43.609,-41.527 78.789,-30.019 V 349.219 h -71.293 c -175.32,0 -144.777,353.601 -116.289,457.722 -73.352,-6.632 -75.391,43.895 -56.281,108.797" /></g></g><path
         id="path52"
         style="fill:#f19e1a;fill-opacity:1;fill-rule:nonzero;stroke:none"
         d="m 628.242,818.199 -3.804,-13.894 c -21.883,-80 -45.122,-310.176 27.281,-405.043 20.562,-26.953 46.523,-40.043 79.367,-40.043 h 61.293 v 85.863 c -33.469,-6.543 -60.133,6.477 -77.551,38.137 l -1.238,2.261 v 331.461 h 75.043 v 88.797 H 713.59 V 1085.82 H 624.797 V 905.738 H 566.07 c -10.539,-38.562 -10.394,-63.758 0.399,-76.922 8.215,-10.011 24.172,-14.035 47.426,-11.914 z m 184.137,-478.98 h -81.293 c -38.957,0 -71.008,16.113 -95.266,47.902 -76.75,100.57 -53.41,324.262 -33.961,409.254 -23.129,0.156 -40.195,6.777 -50.847,19.754 -16.192,19.726 -16.856,52.277 -2.09,102.434 l 2.113,7.175 h 53.762 V 1105.82 H 733.59 V 925.738 h 75.043 V 796.941 H 733.59 V 490.68 c 14.941,-25.539 35.863,-32.899 65.68,-23.149 l 13.109,4.289 V 339.219" /><g
         id="g54"><g
           clip-path="url(#clipPath60)"
           id="g56"><path
             id="path68"
             style="fill:url(#linearGradient66);fill-opacity:1;fill-rule:nonzero;stroke:none"
             d="m 1413.91,1122.09 h 112.56 V 349.219 C 1347.35,489.148 1413.91,811.98 1413.91,1122.09" /></g></g><path
         id="path70"
         style="fill:#f6ad48;fill-opacity:1;fill-rule:nonzero;stroke:none"
         d="m 1428.86,1107.09 c -0.42,-62.92 -3.36,-126.391 -6.2,-187.902 C 1412.56,701.09 1403,494.289 1511.47,382.77 v 724.32 z m 112.61,-788.629 -24.23,18.937 c -146.25,114.262 -135.72,342.024 -124.55,583.176 3.05,66.063 6.22,134.386 6.22,201.516 v 15 h 142.56 V 318.461" /><g
         id="g72"><g
           clip-path="url(#clipPath78)"
           id="g74"><path
             id="path86"
             style="fill:url(#linearGradient84);fill-opacity:1;fill-rule:nonzero;stroke:none"
             d="m 1635.26,1122.09 h 112.56 V 349.219 C 1568.71,489.148 1635.26,811.98 1635.26,1122.09" /></g></g><path
         id="path88"
         style="fill:#f6ad48;fill-opacity:1;fill-rule:nonzero;stroke:none"
         d="m 1650.21,1107.09 c -0.42,-62.92 -3.35,-126.391 -6.2,-187.902 -10.09,-218.098 -19.66,-424.899 88.81,-536.418 v 724.32 z m 112.61,-788.629 -24.23,18.937 c -146.25,114.262 -135.71,342.032 -124.55,583.176 3.05,66.063 6.22,134.386 6.22,201.516 v 15 h 142.56 V 318.461" /><g
         id="g90"><g
           clip-path="url(#clipPath96)"
           id="g92"><path
             id="path104"
             style="fill:url(#linearGradient102);fill-opacity:1;fill-rule:nonzero;stroke:none"
             d="M 3402.19,349.219 V 1122.09 H 3518.5 V 473.031 h 311.41 C 3796.83,296.02 3608.64,290.922 3402.19,349.219" /></g></g><path
         id="path106"
         style="fill:#f6ad48;fill-opacity:1;fill-rule:nonzero;stroke:none"
         d="m 3417.19,360.621 c 146.89,-39.973 259.39,-39.34 325.8,1.867 33.73,20.934 56.59,53.024 68.13,95.543 H 3503.5 v 649.059 h -86.31 z m 190.79,-59.781 c -59.64,0 -129.72,11.308 -209.86,33.941 l -10.93,3.09 V 1137.09 H 3533.5 V 488.031 h 314.47 l -3.32,-17.75 C 3833.43,410.219 3804.56,365.379 3758.81,337 c -38.84,-24.109 -89.27,-36.16 -150.83,-36.16" /><g
         id="g108"><g
           clip-path="url(#clipPath114)"
           id="g110"><path
             id="path122"
             style="fill:url(#linearGradient120);fill-opacity:1;fill-rule:nonzero;stroke:none"
             d="M 3912.44,349.219 V 911.98 h 116.31 c 59.91,-243.921 42.02,-484.121 -116.31,-562.761 m 60.05,615.301 c -66.33,0 -79.82,104.01 -41.29,142.56 27.52,20.02 55.03,20.02 82.55,0 38.51,-38.55 25,-142.56 -41.26,-142.56" /></g></g><path
         id="path124"
         style="fill:#f6ad48;fill-opacity:1;fill-rule:nonzero;stroke:none"
         d="m 3941.02,1095.66 c -16.92,-17.95 -21.3,-56.56 -9.46,-85.14 5.86,-14.137 17.72,-31 40.93,-31 23.16,0 35.01,16.855 40.87,30.98 11.85,28.59 7.48,67.2 -9.43,85.16 -21.45,15.17 -41.49,15.15 -62.91,0 z m 31.47,-146.14 c -30.59,0 -55.6,18.046 -68.65,49.519 -16.74,40.391 -9.38,92.501 16.75,118.641 l 1.78,1.53 c 32.76,23.84 67.42,23.84 100.2,0 l 1.8,-1.53 c 26.11,-26.14 33.45,-78.26 16.71,-118.66 -13.05,-31.454 -38.05,-49.5 -68.59,-49.5 z m -45.05,-52.54 V 375.109 c 135.06,89.102 136.32,322.426 89.49,521.871 z m -30,-571.96 v 601.96 h 143.07 l 2.82,-11.425 c 71,-289.133 24.57,-505.875 -124.22,-579.774 l -21.67,-10.761" /><g
         id="g126"><g
           clip-path="url(#clipPath132)"
           id="g128"><path
             id="path140"
             style="fill:url(#linearGradient138);fill-opacity:1;fill-rule:nonzero;stroke:none"
             d="m 4126.29,930.75 h 108.79 v -86.289 c 242.3,387.679 311.19,-373.129 288.91,-495.242 h -112.58 v 341.414 c 0,329.957 -189.75,-181.031 -176.33,-341.414 C 4090.7,436.699 4068.96,687 4126.29,930.75" /></g></g><path
         id="path142"
         style="fill:#f6ad48;fill-opacity:1;fill-rule:nonzero;stroke:none"
         d="M 4426.41,364.219 H 4511 c 13.59,121 -31.45,531.258 -134.83,571.297 -44.1,17.117 -94.22,-44.375 -128.36,-99.004 l -27.73,-44.356 V 915.75 h -81.84 c -55.25,-245.238 -23.4,-450.43 81.4,-537.18 5.04,133.719 91.08,393.203 147.1,429.856 14.2,9.285 25.5,5.691 30.97,2.734 14.19,-7.676 28.7,-28 28.7,-120.527 z m -173.92,-43.09 -25.18,15.25 C 4061.77,436.68 4061.57,721.102 4111.69,934.188 l 2.72,11.562 h 135.67 v -52.902 c 48.23,63.437 94.13,87.218 136.93,70.636 138.41,-53.613 166.51,-536.004 151.74,-616.964 l -2.25,-12.301 h -140.09 v 356.414 c 0,72.566 -9.5,89.871 -12.34,93.418 -37.68,-13.965 -144.61,-307.289 -134.04,-433.582 l 2.46,-29.34" /><g
         id="g144"><g
           clip-path="url(#clipPath150)"
           id="g146"><path
             id="path158"
             style="fill:url(#linearGradient156);fill-opacity:1;fill-rule:nonzero;stroke:none"
             d="m 4621.51,349.219 v 772.871 h 108.81 V 716.902 L 4880.4,938.27 h 131.31 L 4857.91,720.652 5030.47,349.219 H 4902.91 L 4782.87,623.09 4730.32,548.051 C 4767,424.25 4753.41,334.281 4621.51,349.219" /></g></g><path
         id="path160"
         style="fill:#f6ad48;fill-opacity:1;fill-rule:nonzero;stroke:none"
         d="m 4636.51,362.969 c 37.6,-2.231 64.23,5.722 79.28,23.672 22.9,27.32 22.95,80.191 0.14,157.16 l -2.05,6.929 72.01,102.829 126.82,-289.34 h 94.26 l -166.33,357.996 142.1,201.055 h -94.4 L 4715.32,668.039 v 439.051 h -78.81 z m 11.73,-30.36 c -8.98,0 -18.45,0.571 -28.42,1.7 l -13.31,1.511 v 801.27 h 138.81 V 765.758 l 127.13,187.512 h 168.24 L 4875.17,719.09 5053.98,334.219 H 4893.1 l -113.26,258.402 -33.12,-47.281 c 24.06,-84.66 21.44,-142.918 -7.95,-177.969 -19.37,-23.109 -49.76,-34.762 -90.53,-34.762" /><g
         id="g162"><g
           clip-path="url(#clipPath168)"
           id="g164"><path
             id="path176"
             style="fill:url(#linearGradient174);fill-opacity:1;fill-rule:nonzero;stroke:none"
             d="m 2699.51,892.527 105.07,284.203 c 15.61,35.04 31.89,35.04 48.75,0 l 96.6,-284.203 h 291.73 c 34.38,0 39.7,-15 15.93,-45 L 3032.5,661.801 3125.35,379.48 c 4.36,-33.769 -10.02,-43.761 -43.15,-30.011 L 2830.84,521.102 2579.45,349.469 c -35.01,-19.379 -51.27,-10.617 -48.78,26.269 l 98.5,276.692 -244.81,191.336 c -23.75,31.269 -15.62,47.519 24.37,48.761 h 290.78" /></g></g><path
         id="path178"
         style="fill:#f6ad48;fill-opacity:1;fill-rule:nonzero;stroke:none"
         d="m 2545.52,372.73 c -0.71,-14.832 2.55,-18 2.59,-18.019 0.05,-0.039 5.5,-2.289 23.47,7.551 l 259.26,177 258.5,-176.5 c 13.53,-5.403 19.15,-4.371 19.93,-3.793 0.04,0.031 2.97,3.242 1.37,17.23 l -95.6,290.653 231.75,191.211 c 7.64,9.863 9.66,15.273 10.19,17.511 -1.84,0.742 -6.21,1.953 -15.32,1.953 h -302.48 l -99.76,293.483 c -5.26,10.78 -9.09,14.9 -10.86,16.39 -1.71,-1.54 -5.4,-5.81 -10.28,-16.78 L 2709.96,877.527 h -301.23 c -18.64,-0.586 -22.58,-4.757 -22.72,-4.922 v 0 c 0.06,0 -0.54,-5.05 9.16,-18.253 L 2646.92,657.59 Z m 4.41,-48.25 c -6.15,0 -12.31,1.352 -17.92,4.911 -18.7,11.898 -16.9,38.589 -16.3,47.371 l 0.14,2.058 95.56,268.45 -237.83,185.871 -1.17,1.554 c -5.73,7.547 -23.17,30.508 -13.42,50.938 9.86,20.664 39.53,21.582 49.28,21.883 l 280.79,0.011 101.44,274.403 c 4.21,9.52 15.91,35.75 37.6,36.07 0.14,0 0.28,0 0.42,0 19.35,0 31.12,-19.81 38.32,-34.77 l 0.68,-1.68 93.15,-274.023 h 280.99 c 8.36,0 33.81,0 42.79,-18.554 8.53,-17.649 -4.53,-37.422 -15.1,-50.762 l -2.21,-2.258 -217.19,-179.191 90.27,-275.364 c 1.06,-8.218 4.3,-33.238 -12.72,-46.257 -11.82,-9.032 -28.5,-8.879 -51.05,0.468 l -2.7,1.481 -242.91,165.851 -244.13,-166.601 c -6.19,-3.418 -21.43,-11.86 -36.78,-11.86" /><path
         id="path180"
         style="fill:#f9c836;fill-opacity:1;fill-rule:nonzero;stroke:none"
         d="m 2740.79,840.016 h -265.44 l 227.91,-174.446 -96.6,-242 224.18,172.571 219.47,-169.762 -91.94,247.621 204.49,166.016 h -255.11 l -78.8,248.554 -88.16,-248.554" /><g
         id="g182"><g
           clip-path="url(#clipPath188)"
           id="g184"><path
             id="path196"
             style="fill:url(#linearGradient194);fill-opacity:1;fill-rule:nonzero;stroke:none"
             d="m 2957.97,1443.86 -14.77,97.08 c -1.06,12.39 3.57,14.93 13.84,7.67 l 71.97,-65.47 82.71,45.76 c 9.74,5.4 13.63,1.99 11.58,-10.26 l -34.68,-87.99 70.59,-65.47 c 6.56,-8.89 4.05,-14.01 -7.54,-15.3 l -98.23,9.25 -44.31,-88.09 c -6.93,-10.99 -12.89,-11.05 -17.98,-0.19 l -15.46,93.9 -99.44,15.85 c -11.64,5.15 -11.85,11.05 -0.73,17.69 l 82.45,45.57" /></g></g><path
         id="path198"
         style="fill:#f6ad48;fill-opacity:1;fill-rule:nonzero;stroke:none"
         d="m 2896.25,1392.61 92.49,-14.75 14.13,-85.88 41.77,83.05 91.16,-8.59 -64.9,60.18 31.54,80 -75.57,-41.81 -66.08,60.11 13.59,-89.13 z m 103.23,-144.87 c -0.44,0 -0.87,0.02 -1.31,0.05 -6.01,0.37 -14.45,3.57 -20.61,16.69 l -0.88,1.88 -14.04,85.29 -92.45,15.23 c -11.27,4.98 -17.26,12.05 -17.8,21 -0.56,9 4.65,16.84 15.45,23.29 l 73.74,40.77 -13.22,86.74 c -1.17,13.44 2.24,22 10.01,26.45 7.8,4.46 17.01,3.03 27.33,-4.28 l 1.43,-1.15 64.02,-58.23 73.31,40.56 c 12.53,6.93 20.95,4.3 25.81,0.86 7.29,-5.16 9.93,-14.14 7.82,-26.73 l -0.84,-3.02 -30.92,-78.46 64.96,-60.6 c 8.21,-11.14 7.13,-19.87 4.79,-25.22 -3.47,-7.91 -11.12,-12.59 -22.75,-13.89 l -1.53,-0.17 -89.56,8.43 -40.42,-80.18 c -6.4,-10.16 -13.91,-15.31 -22.34,-15.31" /><g
         id="g200"><g
           clip-path="url(#clipPath206)"
           id="g202"><path
             id="path214"
             style="fill:url(#linearGradient212);fill-opacity:1;fill-rule:nonzero;stroke:none"
             d="m 3221.93,1504.93 c 0,0 566.93,206.76 -480.22,-780.364 C 1694.55,-262.559 2048.04,244.34 2048.04,244.34 c 0,0 -513.56,-793.731 873.75,573.586 1387.32,1367.304 300.14,687.004 300.14,687.004" /></g></g><path
         id="path216"
         style="fill:#f6ad48;fill-opacity:1;fill-rule:nonzero;stroke:none"
         d="m 1987.92,103.199 c -16.43,-38.0076 -23.25,-65.6599 -15.66,-71.8396 1.06,-0.8985 28.32,-19.6992 211.89,126.6406 162.14,129.262 406.78,354.891 727.11,670.609 704.64,694.471 712.84,807.391 698.57,825.461 -20.33,25.78 -161.36,-34.7 -303.82,-116.28 30.59,1.24 60.76,-4.86 75.57,-28.86 24.81,-40.21 -3.09,-111.64 -87.82,-224.75 C 3192.63,1149.16 3010.36,957.203 2752,713.648 2080.93,81.0586 2010.93,85.8984 1987.92,103.199 Z M 1977.44,0 c -10.96,0 -18.37,3.42188 -24.13,8.10156 -30.88,25.14844 0.78,102.26944 36.48,167.91844 11.55,24.98 28.92,52.48 45.95,76.91 l 24.89,-16.731 c -16.43,-25.41 -31.48,-51.019 -44.42,-75.129 -6.82,-14.441 -10.8,-25.941 -10.75,-32.031 22.76,0.141 138.95,53.09 725.96,606.445 623.18,587.456 644.42,725.576 624.63,757.686 -16.95,27.52 -94.24,10.3 -128.98,-2.33 l -13.1,26.8 c 0.89,0.56 89.47,55.86 182.87,102.9 178.08,89.7 220.27,72.69 236.52,52.12 36.09,-45.67 -10.98,-185.31 -701.04,-865.418 C 2611.24,490.789 2365.81,264.461 2202.85,134.539 2069.25,28.0313 2008.83,0 1977.44,0" /><g
         id="g218"><g
           clip-path="url(#clipPath224)"
           id="g220"><path
             id="path232"
             style="fill:url(#linearGradient230);fill-opacity:1;fill-rule:nonzero;stroke:none"
             d="m 1200.05,698.133 h -155.07 c 15.82,118.535 133.23,225.703 155.07,0 z M 1044.98,596.832 h 275.15 C 1222.63,880.77 1132.6,946.539 1086.08,950.379 963.164,960.445 904.805,337.801 1039.31,328.91 c 41.66,-2.75 212.24,20.961 269.56,192.899 -100.75,-58.207 -249.99,-126.368 -263.89,75.023" /></g></g><path
         id="path234"
         style="fill:#f6ad48;fill-opacity:1;fill-rule:nonzero;stroke:none"
         d="m 1062.87,713.133 h 120.41 c -9.54,74.414 -30.53,101.765 -47.8,102.078 -0.12,0 -0.24,0 -0.35,0 -24.44,0 -59.67,-45.32 -72.26,-102.078 z m 153.7,-30.004 h -188.72 l 2.26,16.984 c 9.21,68.957 54.49,145.098 105.01,145.098 0.3,0 0.6,0 0.91,-0.008 29.64,-0.539 67.4,-26.242 78.95,-145.625 z m -133.33,252.367 c -13.55,0 -25.95,-13.859 -34.08,-25.754 -69.625,-101.746 -96.418,-425.82 -44.1,-533.461 10.02,-20.621 21.87,-31.519 35.24,-32.402 36.58,-2.527 173.86,16.84 238.35,144.191 -62.4,-32.261 -132.1,-56.629 -183.57,-29.238 -38.31,20.387 -60.2,66.469 -65.07,136.969 l -1.1,16.031 h 270.1 C 1192.6,911.539 1102.2,934 1084.85,935.426 c -0.54,0.051 -1.08,0.07 -1.61,0.07 z M 1045.48,313.73 c -2.67,0 -5.06,0.079 -7.16,0.211 -24.9,1.649 -45.172,18.219 -60.246,49.219 -57.933,119.219 -30.664,451.016 46.326,563.528 18.83,27.519 39.97,40.468 62.91,38.64 37.8,-3.125 137.52,-44.793 247.01,-363.617 l 6.82,-19.879 h -279.73 c 5.82,-50.301 21.86,-82.73 47.76,-96.523 49.73,-26.438 133.51,15.582 192.2,49.492 l 34.24,19.789 -12.51,-37.52 C 1265.81,345.199 1099.75,313.738 1045.48,313.73" /><g
         id="g236"><g
           clip-path="url(#clipPath242)"
           id="g238"><path
             id="path250"
             style="fill:url(#linearGradient248);fill-opacity:1;fill-rule:nonzero;stroke:none"
             d="m 1967.79,513.781 c -11.07,111.27 104.3,97.571 145.93,146.77 14.01,23.5 -106.18,-397.301 -145.93,-146.77 z m 279,-14.48 c 52.76,316.254 -340.91,661.779 -378.9,243.859 h 108.76 c 5.89,93.809 137.33,126.418 137.33,12.356 0,135.195 -581.21,-501.286 27.77,-353.766 l 11.26,-52.531 c 147.45,-35.969 93.78,22.492 93.78,150.082" /></g></g><path
         id="path252"
         style="fill:#f6ad48;fill-opacity:1;fill-rule:nonzero;stroke:none"
         d="m 1982.67,515.691 c 9.93,-62.211 22.76,-66.82 22.9,-66.82 v 0 c 22.18,0.809 66.88,113.598 85.71,176.367 -10.6,-5.527 -21.92,-10.168 -33.07,-14.738 -43.7,-17.918 -81.46,-33.41 -75.54,-94.809 z m 22.82,-96.82 c -0.15,0 -0.29,0.008 -0.45,0.008 -33.22,0.551 -45.27,49.742 -52.07,92.543 l -0.11,0.867 c -8.35,84.012 48.39,107.27 93.97,125.961 22.03,9.031 42.85,17.582 54.93,31.41 4.96,6.93 12.57,7.988 18.21,5.852 12.38,-4.711 9.8,-18.133 8.95,-22.543 -0.45,-2.348 -58.32,-234.098 -123.43,-234.098 z m 160.2,-57.242 c 39.8,-9.117 63.7,-10.399 71.14,-3.797 7.23,6.406 4.35,30.539 1.02,58.477 -2.7,22.589 -6.06,50.722 -6.06,82.992 l 0.21,2.469 c 25.46,152.652 -56.8,310.16 -147.14,380.843 -45.22,35.383 -88.79,46.809 -122.71,32.141 -40.75,-17.617 -67.45,-71.613 -77.61,-156.594 h 78.9 c 10,52.91 56.03,86.055 97.04,84.992 31.6,-0.988 68.5,-24.543 68.5,-87.636 h -30 c 0,0.007 0,0.019 0,0.019 0,1.981 -0.18,3.281 -0.36,4.082 -19.3,0.664 -97.81,-60.293 -161.54,-153.586 -54.21,-79.332 -71.78,-144.402 -48.21,-178.519 19.33,-27.981 78.25,-52.633 249.35,-11.18 l 14.97,3.617 z m 52.68,-37.797 c -17.06,0 -39.35,3.598 -68.92,10.816 l -9.14,2.223 -10.02,46.77 c -144.1,-32.86 -234.09,-23.11 -267.61,29.089 -47.72,74.29 37.31,196.95 76.07,246.231 35.63,45.285 108.35,123.223 154.51,129.992 -6.38,15.203 -17.93,23.719 -33.72,24.219 -29.94,0.703 -65.22,-27.969 -67.92,-70.949 l -0.88,-14.063 h -139.28 l 1.49,16.36 c 12.18,133.964 59.63,181.492 97.29,197.773 44.46,19.238 98.84,6.426 153.11,-36.047 96.89,-75.82 185.15,-244.484 158.44,-408.164 0.09,-29.961 3.14,-55.582 5.85,-78.223 4.68,-39.281 8.07,-67.66 -10.92,-84.48 -8.7,-7.707 -20.74,-11.547 -38.35,-11.547" /></g></g></svg>