<?xml version="1.0" encoding="UTF-8" standalone="no"?>

<svg
   width="135.46667mm"
   height="135.46667mm"
   viewBox="0 0 135.46667 135.46667"
   version="1.1"
   id="svg5"
   xml:space="preserve"
   xmlns="http://www.w3.org/2000/svg"
   xmlns:svg="http://www.w3.org/2000/svg"><defs
     id="defs2"><style
       id="style132">
      .st0 {
        fill: url(#_gradation_16);
      }
    </style><linearGradient
       id="_gradation_16"
       data-name="gradation 16"
       x1="61.450348"
       y1="193.66197"
       x2="243.85016"
       y2="193.66197"
       gradientUnits="userSpaceOnUse"
       gradientTransform="matrix(0.27980022,0,0,0.27980022,28.165297,13.546672)"><stop
         offset="0"
         stop-color="#c30d23"
         id="stop134" /><stop
         offset="1"
         stop-color="#f29600"
         id="stop136" /></linearGradient></defs><path
     class="st0"
     d="M 83.77329,35.723458 C 76.450762,29.86544 73.52177,23.379779 72.4757,18.777045 c -0.836853,-3.76587 -0.418458,-4.184298 -0.418458,-4.184298 0,-0.418429 -0.418457,-0.836859 -0.627628,-1.046075 h -1.255299 c 0,0 -1.464538,0.209216 -3.765845,2.510579 -5.230373,5.021158 -11.297594,13.598971 -7.322523,25.315006 4.184302,12.552895 2.09215,15.272695 -0.209228,15.063465 -2.928997,-0.20921 -3.347451,-1.88293 -2.928997,-7.531722 0.62762,-6.485672 -5.230371,-11.925254 -5.230371,-11.925254 0,0 -8.996216,14.435826 -16.109574,24.687356 -4.184298,6.06724 -6.276448,13.80819 -6.276448,20.9215 v 0 c 0,21.758338 17.57404,39.332398 39.332377,39.332398 21.758344,0 39.332384,-17.57406 39.332384,-39.332398 1.46454,-18.82934 -8.78704,-35.775754 -23.01364,-47.073363 z M 67.663769,111.04082 c -11.925274,0 -21.758337,-9.62389 -21.758337,-21.758348 0,-12.13446 1.046075,-7.95016 3.138223,-11.08838 1.673696,6.27644 7.322523,10.87918 14.226594,10.87918 6.904066,0 14.645042,-6.48566 14.645042,-14.64506 0,-8.15938 -0.209218,-3.13822 -0.627612,-4.3935 7.113301,3.55666 12.134441,10.87918 12.134441,19.45698 0,11.925248 -9.623907,21.758338 -21.758351,21.758338 z"
     id="path141"
     style="fill:url(#_gradation_16);stroke-width:0.2798" /></svg>
