<?xml version="1.0" encoding="utf-8"?>
<!-- Generator: Adobe Illustrator 24.0.1, SVG Export Plug-In . SVG Version: 6.00 Build 0)  -->
<svg version="1.1" id="レイヤー_2_1_" xmlns="http://www.w3.org/2000/svg" xmlns:xlink="http://www.w3.org/1999/xlink" x="0px"
	 y="0px" viewBox="0 0 537.9 194" style="enable-background:new 0 0 537.9 194;" xml:space="preserve">
<style type="text/css">
	.st0{fill:#376FBC;}
	.st1{fill:#FFFFFF;}
</style>
<path class="st0" d="M517.9,194H20c-11,0-20-9-20-20V20C0,9,9,0,20,0h497.9c11,0,20,9,20,20v154C537.9,185,528.9,194,517.9,194z"/>
<g>
	<g>
		<g>
			<circle class="st0" cx="117.6" cy="67.8" r="6.2"/>
			<circle class="st0" cx="117.6" cy="135.5" r="6.2"/>
		</g>
		<g>
			<circle class="st0" cx="85.1" cy="76.7" r="6.2"/>
			<path class="st1" d="M122.9,124.4v-7.8v-10.8V78.9c4.1-2,7-6.2,7-11.1c0-6.8-5.5-12.3-12.3-12.3s-12.3,5.5-12.3,12.3
				c0,4.9,2.9,9.1,7,11.1v26.9c-8.5-2.2-15.6-9.5-19.5-19.6c2.8-2.3,4.6-5.7,4.6-9.6c0-6.8-5.5-12.3-12.3-12.3s-12.3,5.5-12.3,12.3
				c0,5.9,4.2,10.8,9.7,12c5.4,14.8,16.6,25.6,29.8,27.9v7.8c-4.1,2-7,6.2-7,11.1c0,6.8,5.5,12.3,12.3,12.3s12.3-5.5,12.3-12.3
				C129.9,130.6,127,126.4,122.9,124.4z M85.1,82.8c-3.4,0-6.2-2.8-6.2-6.2c0-3.4,2.8-6.2,6.2-6.2s6.2,2.8,6.2,6.2
				C91.2,80.1,88.5,82.8,85.1,82.8z M111.4,67.8c0-3.4,2.8-6.2,6.2-6.2c3.4,0,6.2,2.8,6.2,6.2S121,74,117.6,74
				S111.4,71.2,111.4,67.8z M117.6,141.6c-3.4,0-6.2-2.8-6.2-6.2s2.8-6.2,6.2-6.2c3.4,0,6.2,2.8,6.2,6.2
				C123.7,138.9,121,141.6,117.6,141.6z"/>
		</g>
	</g>
	<g>
		<path class="st1" d="M177.5,106.8L155.8,69h11.5l15.2,26.6L197.7,69h11.5l-21.8,37.7v28.7h-10v-28.6H177.5z"/>
		<path class="st1" d="M285.3,100.7l-8,4.3c-1.3-2.6-2.8-3.9-4.7-3.9c-0.9,0-1.7,0.3-2.3,0.9c-0.6,0.6-0.9,1.3-0.9,2.3
			c0,1.6,1.9,3.2,5.6,4.8c5.1,2.2,8.6,4.2,10.4,6.1s2.7,4.4,2.7,7.5c0,4-1.5,7.4-4.5,10.2c-2.9,2.6-6.4,3.9-10.5,3.9
			c-7,0-12-3.4-14.9-10.3l8.3-3.8c1.1,2,2,3.3,2.6,3.8c1.2,1.1,2.6,1.6,4.2,1.6c3.3,0,4.9-1.5,4.9-4.5c0-1.7-1.3-3.3-3.8-4.8
			c-1-0.5-2-1-2.9-1.4c-1-0.5-2-0.9-3-1.4c-2.8-1.4-4.8-2.8-5.9-4.1c-1.5-1.8-2.2-4-2.2-6.8c0-3.6,1.2-6.7,3.7-9
			c2.6-2.4,5.7-3.6,9.3-3.6C278.7,92.4,282.6,95.2,285.3,100.7z"/>
		<path class="st1" d="M321,100.7l-8,4.3c-1.3-2.6-2.8-3.9-4.7-3.9c-0.9,0-1.7,0.3-2.3,0.9c-0.6,0.6-0.9,1.3-0.9,2.3
			c0,1.6,1.9,3.2,5.6,4.8c5.1,2.2,8.6,4.2,10.4,6.1s2.7,4.4,2.7,7.5c0,4-1.5,7.4-4.5,10.2c-2.9,2.6-6.4,3.9-10.5,3.9
			c-7,0-12-3.4-14.9-10.3l8.3-3.8c1.1,2,2,3.3,2.6,3.8c1.2,1.1,2.6,1.6,4.2,1.6c3.3,0,4.9-1.5,4.9-4.5c0-1.7-1.3-3.3-3.8-4.8
			c-1-0.5-2-1-2.9-1.4c-1-0.5-2-0.9-3-1.4c-2.8-1.4-4.8-2.8-5.9-4.1c-1.5-1.8-2.2-4-2.2-6.8c0-3.6,1.2-6.7,3.7-9
			c2.6-2.4,5.7-3.6,9.3-3.6C314.4,92.4,318.4,95.2,321,100.7z"/>
		<path class="st1" d="M344.3,69v57h19.5v9.4h-29.6V69H344.3z"/>
		<path class="st1" d="M434.1,62.8v35.6c3.9-4,8.3-6,13.2-6c5.7,0,10.4,2.1,14.1,6.3c3.8,4.2,5.6,9.4,5.6,15.7
			c0,6.5-1.9,11.8-5.7,16c-3.8,4.2-8.5,6.3-14.2,6.3c-4.8,0-9.2-1.9-13-5.6v4.4h-9.7V62.8H434.1z M457.1,114.8c0-4-1.1-7.3-3.3-9.8
			c-2.2-2.6-5-3.9-8.3-3.9c-3.6,0-6.5,1.2-8.7,3.7s-3.3,5.7-3.3,9.6c0,4.1,1.1,7.3,3.3,9.8c2.2,2.5,5.1,3.7,8.6,3.7
			c3.4,0,6.1-1.2,8.4-3.7C456,121.8,457.1,118.6,457.1,114.8z"/>
		<g>
			<path class="st1" d="M239.4,93.6l0.1,19.1c0.1,0.6,0,1.3,0,1.9c0,3.9-1.1,7.2-3.3,9.7s-5.1,3.7-8.7,3.7c-3.4,0-6.1-1.3-8.4-3.8
				c-2.2-2.5-3.2-5.8-3.2-9.8c0-3.8,1.1-6.9,3.3-9.5c2.2-2.5,5-3.8,8.4-3.8c3.1,0,5.7,1,7.8,2.9v-8.6c-3-2-6.2-3.1-9.6-3.1
				c-5.7,0-10.4,2.1-14.1,6.3c-3.8,4.2-5.6,9.4-5.6,15.7c0,6.4,1.9,11.7,5.6,16c3.8,4.2,8.6,6.3,14.4,6.3c4.6,0,8.9-1.9,12.9-5.6
				v4.4h9.7V93.6H239.4z"/>
		</g>
		<g>
			<path class="st1" d="M402.9,93.6l0.1,19.1c0.1,0.6,0,1.3,0,1.9c0,3.9-1.1,7.2-3.3,9.7c-2.2,2.5-5.1,3.7-8.7,3.7
				c-3.4,0-6.1-1.3-8.4-3.8c-2.2-2.5-3.2-5.8-3.2-9.8c0-3.8,1.1-6.9,3.3-9.5c2.2-2.5,5-3.8,8.4-3.8c3.1,0,5.7,1,7.8,2.9v-8.6
				c-3-2-6.2-3.1-9.6-3.1c-5.7,0-10.4,2.1-14.1,6.3c-3.8,4.2-5.6,9.4-5.6,15.7c0,6.4,1.9,11.7,5.6,16c3.8,4.2,8.6,6.3,14.4,6.3
				c4.6,0,8.9-1.9,12.9-5.6v4.4h9.7V93.6H402.9z"/>
		</g>
	</g>
</g>
</svg>
