<?xml version="1.0" encoding="UTF-8"?>
<svg id="Layer_1" data-name="Layer 1" xmlns="http://www.w3.org/2000/svg" viewBox="0 0 841.89 595.28">
  <defs>
    <style>
      .cls-1 {
        fill: #221c35;
      }

      .cls-2 {
        fill: #f7be00;
      }

      .cls-3 {
        fill: #fff;
      }

      .cls-4 {
        fill: #00afaa;
      }
    </style>
  </defs>
  <g>
    <text/>
    <polyline class="cls-4" points="620.71 23.79 568.03 120.86 647.46 84.9 620.71 23.79"/>
    <polygon class="cls-4" points="100.86 139.08 164.58 193.86 70.12 201.35 100.86 139.08"/>
    <polygon class="cls-4" points="446.28 572.39 433.31 462.71 389.18 537.9 446.28 572.39"/>
    <polyline class="cls-4" points="550.07 193.45 702.62 444.41 373.99 393.53"/>
    <polygon class="cls-4" points="374.87 374.78 586.77 560.58 560.01 375.93 374.87 374.78"/>
    <polyline class="cls-4" points="563.66 146.03 789.5 210.52 634.15 361.77"/>
    <polyline class="cls-4" points="248.2 395.16 245.05 575.01 459.85 414.02"/>
    <polyline class="cls-4" points="246.05 319.21 145.25 26.15 458.65 158.47"/>
    <polyline class="cls-4" points="598.04 235.68 499.61 26.15 52.39 445.36 504.2 426.56"/>
    <polygon class="cls-1" points="483.49 301.35 125.03 386.01 118.59 226.97 477.06 143.78 483.49 301.35"/>
    <polygon class="cls-1" points="720.23 369.3 322.35 465.46 319.01 307.48 709.83 211.86 720.23 369.3"/>
    <g>
      <path class="cls-3" d="M187.2,308.2l.46,14.22c-.1,4.28-.83,8.29-2.1,11.86-1.36,3.17-3.03,6.27-5.62,9.02-2.67,3.06-6.3,5.07-10.99,6.21-4.69,1.13-8.44.9-11.4-.79-2.77-1.46-4.59-3.72-5.77-6.27-1.69-2.86-2.53-6.34-2.73-10.7l-1.7-61.04c0-4.12.63-7.96,2-11.7,1.36-3.17,2.86-6.37,5.46-9.13,2.6-2.76,6.3-5.07,11.12-6.24,4.83-1.17,8.5-.64,11.27.82,2.77,1.46,4.75,3.82,5.94,6.37,1.65,2.72,2.49,6.21,2.83,10.53l.32,14.26-13.54,3.27-.33-14.26c-.08-2.68-.87-4.76-2.43-5.94-.7-.54-1.87-.68-3.34-.33-2.55.62-3.7,2.88-4.36,4.89-.17,1.04-.42,2.37-.47,3.95l1.71,61.05c.21,2.64,1,4.73,2.43,5.94.7.54,1.6.75,2.81.46,3.08-.75,4.3-2.75,4.89-5.01.21-.9.45-2.24.47-3.95l-.46-14.22,13.54-3.27Z"/>
      <path class="cls-3" d="M234.05,311.21c-.1,4.28-.83,8.29-2.1,11.86-1.36,3.17-3.03,6.27-5.62,9.02-2.67,3.06-6.3,5.07-10.99,6.21-4.69,1.14-8.44.91-11.4-.79-2.77-1.46-4.59-3.72-5.77-6.27-1.68-2.86-2.53-6.34-2.73-10.7l-1.71-61.05c0-4.12.63-7.96,2-11.7,1.36-3.17,2.86-6.37,5.46-9.13,2.6-2.76,6.3-5.07,11.12-6.24,4.83-1.17,8.5-.64,11.27.82,2.77,1.46,4.75,3.82,5.94,6.37,1.65,2.72,2.49,6.21,2.83,10.53l1.7,61.04ZM217.86,253.67c-.11-2.81-.87-4.76-2.16-6.01-.7-.54-1.73-.72-2.94-.42-2.55.62-3.7,2.88-4.22,4.85-.28,1.2-.39,2.51-.33,3.91l1.71,61.04c-.06,2.71.73,4.79,2.16,6.01.7.54,1.6.75,2.81.46,2.55-.62,3.77-2.61,4.22-4.85.21-.9.45-2.24.47-3.95l-1.71-61.05Z"/>
      <path class="cls-3" d="M281.51,299.73c-.1,4.28-.83,8.29-2.1,11.86-1.36,3.17-3.03,6.27-5.62,9.02-2.67,3.06-6.3,5.07-10.99,6.21-4.69,1.13-8.44.91-11.4-.79-2.77-1.46-4.59-3.72-5.77-6.27-1.69-2.86-2.53-6.34-2.73-10.7l-1.71-61.05c0-4.12.63-7.96,2-11.7,1.36-3.17,2.86-6.37,5.46-9.13,2.6-2.76,6.3-5.07,11.12-6.24,4.83-1.17,8.5-.64,11.27.82,2.77,1.46,4.76,3.82,5.94,6.37,1.65,2.72,2.49,6.21,2.83,10.53l1.71,61.04ZM265.33,242.19c-.11-2.81-.87-4.76-2.16-6.01-.7-.54-1.73-.72-2.94-.42-2.55.62-3.7,2.88-4.22,4.85-.28,1.2-.39,2.51-.33,3.91l1.71,61.05c-.06,2.71.73,4.79,2.16,6.01.7.54,1.6.75,2.81.46,2.55-.62,3.77-2.61,4.22-4.85.21-.9.45-2.24.47-3.95l-1.7-61.05Z"/>
      <path class="cls-3" d="M288.99,215.03l14.48-3.5,2.49,89.53,19.17-4.64.43,14.09-33.66,8.14-2.92-103.62Z"/>
      <path class="cls-3" d="M328.54,205.47l33.12-8.01.38,15.66-18.64,4.51.76,27.21,13.41-3.24.47,16.63-13.41,3.24.78,28.48,18.64-4.51.52,15.63-33.12,8.01-2.92-103.62Z"/>
      <path class="cls-3" d="M394.46,217.49c-.11-3.38-.31-7.16-1.4-9.88-1.05-2.58-2.58-4.2-4.86-3.65-3.72,1.04-4.79,5.42-4.61,11.48.14,3.51,1.52,6.87,3.9,10.27,2.38,3.4,5.07,6.87,8.08,10.54,3.75,4.34,6.99,8.95,9.8,13.53,2.67,4.61,4.58,9.54,4.67,15.2.11,6.93-.57,13.48-3.59,19.18-3.02,5.7-7.7,9.81-15.75,11.76-9.25,2.24-14.65-.15-17.7-5.09-3.31-4.88-3.92-12.11-4.26-19.97l14.16-4.84c.07,4.38.4,8.7,1.55,11.69,1.18,3.12,2.77,5.01,5.86,4.26,4.29-1.04,5.6-6.18,5.55-12.84-.11-3.38-1.69-6.97-4.1-10.51-.63-.84-1.29-1.82-1.92-2.66-.63-.84-1.29-1.82-1.92-2.66-1.42-1.78-3.02-3.67-4.64-5.69-1.62-2.02-3.25-4.04-4.94-6.33-3.51-4.54-5.95-9.35-7.58-14.35-1.02-2.45-1.26-5.23-1.38-8.04-.22-5.62.8-11.97,3.88-17.4,2.85-5.23,7.47-9.61,14.27-11.4,8.95-2.31,13.98.31,16.99,5.12,2.91,4.97,3.96,11.67,4.08,17.46l-14.16,4.84Z"/>
      <path class="cls-3" d="M410.98,201.29l-.38-15.66,41.84-10.12.38,15.66-13.68,3.31,2.54,87.95-14.48,3.5-2.53-87.95-13.68,3.31Z"/>
    </g>
    <g>
      <path class="cls-3" d="M345.52,325.46l14.48-3.5c6.3-1.52,12.56-1.48,17.58,2.28,5.02,3.75,8.55,10.7,8.73,22.58.18,11.88-2.77,20.26-7.4,26.34-4.63,6.09-10.91,9.45-17.22,10.98l1.22,41.43-14.48,3.5-2.92-103.62ZM361.21,368.64c4.42-1.07,7.32-2.62,8.77-5.39,1.63-2.66,1.82-6.54,1.7-12.33-.12-5.79-.63-9.64-2.32-11.93-1.62-2.02-4.6-2.58-9.02-1.51l.86,31.16Z"/>
      <path class="cls-3" d="M421.51,411.4l-8.84-41.86-3.89.94,1.34,43.68-14.48,3.5-2.92-103.62,14.48-3.5c17.3-4.18,24.86,4.21,25.51,23.92.22,10.31-2.06,20.23-7.46,25.51l10.74,47.93-14.48,3.5ZM408.48,356.36c2.01-.49,4.66-1.27,6.72-3.9,2.06-2.63,3.77-6.73,3.55-14.06-.21-7.33-2.03-10.72-4.26-12.31-2.23-1.59-4.91-.94-6.92-.45l.9,30.72Z"/>
      <path class="cls-3" d="M481.11,375.56c-.1,4.28-.83,8.29-2.1,11.86-1.36,3.17-3.03,6.27-5.62,9.02-2.67,3.06-6.3,5.07-10.99,6.21-4.69,1.13-8.44.91-11.4-.79-2.77-1.46-4.59-3.72-5.77-6.27-1.69-2.86-2.53-6.34-2.73-10.7l-1.71-61.05c0-4.12.63-7.96,2-11.69,1.36-3.17,2.86-6.37,5.46-9.13,2.6-2.76,6.3-5.07,11.12-6.24,4.83-1.17,8.5-.64,11.27.82,2.77,1.46,4.75,3.82,5.94,6.37,1.65,2.72,2.49,6.21,2.83,10.53l1.71,61.05ZM464.92,318.01c-.11-2.81-.87-4.76-2.16-6.01-.7-.54-1.73-.72-2.94-.42-2.55.62-3.7,2.88-4.22,4.85-.28,1.2-.39,2.51-.33,3.91l1.71,61.05c-.06,2.71.73,4.79,2.16,6.01.7.54,1.6.75,2.81.46,2.55-.62,3.77-2.61,4.22-4.85.21-.9.45-2.24.46-3.94l-1.7-61.05Z"/>
      <path class="cls-3" d="M486.54,381.62c2.91-.28,5-1.64,6.39-4.1.74-1.03,1.16-2.84,1.11-5.38l-2.25-82.06,14.48-3.5,2.26,84.47c.23,5.62-.99,11.17-4.27,15.79-3.28,4.63-8.66,8.2-17.38,9.74l-.35-14.96Z"/>
      <path class="cls-3" d="M516.34,284.15l33.12-8.01.38,15.66-18.64,4.51.76,27.21,13.41-3.24.47,16.63-13.41,3.24.78,28.48,18.64-4.51.52,15.63-33.12,8.01-2.92-103.62Z"/>
      <path class="cls-3" d="M597.03,333.19l.46,14.22c-.1,4.28-.83,8.29-2.1,11.86-1.36,3.17-3.03,6.27-5.62,9.02-2.67,3.06-6.3,5.07-10.99,6.2-4.69,1.14-8.44.91-11.4-.79-2.77-1.46-4.59-3.72-5.77-6.27-1.69-2.86-2.53-6.34-2.73-10.69l-1.7-61.05c0-4.12.63-7.96,2-11.69,1.36-3.17,2.86-6.37,5.46-9.13,2.6-2.76,6.3-5.07,11.12-6.24,4.83-1.17,8.5-.64,11.27.82,2.77,1.46,4.75,3.82,5.94,6.37,1.65,2.72,2.49,6.21,2.83,10.53l.32,14.26-13.54,3.27-.33-14.26c-.08-2.68-.87-4.76-2.43-5.94-.7-.54-1.87-.68-3.34-.33-2.55.62-3.7,2.88-4.36,4.89-.17,1.04-.42,2.37-.47,3.94l1.71,61.05c.21,2.64,1,4.73,2.43,5.94.7.54,1.6.75,2.81.46,3.08-.75,4.3-2.74,4.89-5.01.21-.9.45-2.24.47-3.94l-.46-14.22,13.54-3.27Z"/>
      <path class="cls-3" d="M599.18,279.87l-.38-15.66,41.84-10.12.38,15.66-13.68,3.31,2.53,87.95-14.48,3.5-2.53-87.95-13.68,3.31Z"/>
      <path class="cls-3" d="M671.02,274.7c-.11-3.38-.31-7.16-1.4-9.88-1.05-2.58-2.58-4.2-4.86-3.65-3.72,1.04-4.79,5.42-4.6,11.48.14,3.51,1.52,6.87,3.9,10.27,2.38,3.4,5.07,6.87,8.08,10.54,3.75,4.35,6.99,8.95,9.8,13.53,2.67,4.6,4.58,9.54,4.67,15.19.11,6.93-.57,13.48-3.59,19.18-3.02,5.7-7.71,9.81-15.75,11.76-9.25,2.24-14.65-.15-17.69-5.09-3.31-4.88-3.92-12.11-4.26-19.98l14.16-4.84c.07,4.38.4,8.7,1.55,11.69,1.18,3.12,2.77,5.01,5.86,4.26,4.29-1.04,5.6-6.18,5.55-12.84-.11-3.38-1.69-6.97-4.1-10.5-.63-.84-1.29-1.82-1.92-2.66-.63-.84-1.29-1.82-1.92-2.66-1.43-1.78-3.02-3.67-4.64-5.69-1.62-2.02-3.25-4.04-4.94-6.33-3.51-4.54-5.95-9.35-7.59-14.35-1.02-2.45-1.27-5.23-1.38-8.04-.23-5.62.79-11.97,3.88-17.4,2.85-5.23,7.47-9.61,14.28-11.4,8.95-2.31,13.98.31,16.99,5.12,2.91,4.97,3.96,11.67,4.08,17.46l-14.16,4.84Z"/>
    </g>
    <polygon class="cls-1" points="300.76 449.61 167.34 482.45 167.34 394.35 299.31 362.57 300.76 449.61"/>
    <polygon class="cls-2" points="256.55 417.99 245.86 410.43 245.82 410.49 219.85 392.17 212.28 402.86 238.28 421.19 219.98 447.13 230.67 454.69 248.98 428.73 248.98 428.73 256.55 418.05 256.52 418.03 256.55 417.99"/>
  </g>
  <text/>
  <g>
    <polygon class="cls-4" points="620.71 23.79 568.03 120.86 647.46 84.9 620.71 23.79"/>
    <polygon class="cls-4" points="100.86 139.08 70.12 201.35 164.58 193.86 100.86 139.08"/>
    <polygon class="cls-4" points="389.18 537.9 446.28 572.39 433.31 462.71 389.18 537.9"/>
    <path class="cls-4" d="M645.61,350.62l143.9-140.09-225.84-64.5,17.66,54.06L499.61,26.15l-110.05,103.15L145.25,26.15l86.4,251.18L52.39,445.36l195.07-8.12-2.41,137.77,193.11-144.74,148.61,130.31-19.88-137.19,135.73,21.01-57.01-93.79ZM612.95,296.9l-24.89-40.94,6.91-14.06,17.97,55Z"/>
  </g>
  <polygon class="cls-1" points="483.49 301.35 125.03 386.01 118.59 226.97 477.06 143.78 483.49 301.35"/>
  <polygon class="cls-1" points="720.23 369.3 322.35 465.46 319.01 307.48 709.83 211.86 720.23 369.3"/>
  <g>
    <path class="cls-3" d="M187.2,308.2l.46,14.22c-.1,4.28-.83,8.29-2.1,11.86-1.36,3.17-3.03,6.27-5.62,9.02-2.67,3.06-6.3,5.07-10.99,6.21-4.69,1.13-8.44.9-11.4-.79-2.77-1.46-4.59-3.72-5.77-6.27-1.69-2.86-2.53-6.34-2.73-10.7l-1.7-61.04c0-4.12.63-7.96,2-11.7,1.36-3.17,2.86-6.37,5.46-9.13,2.6-2.76,6.3-5.07,11.12-6.24,4.83-1.17,8.5-.64,11.27.82,2.77,1.46,4.75,3.82,5.94,6.37,1.65,2.72,2.49,6.21,2.83,10.53l.32,14.26-13.54,3.27-.33-14.26c-.08-2.68-.87-4.76-2.43-5.94-.7-.54-1.87-.68-3.34-.33-2.55.62-3.7,2.88-4.36,4.89-.17,1.04-.42,2.37-.47,3.95l1.71,61.05c.21,2.64,1,4.73,2.43,5.94.7.54,1.6.75,2.81.46,3.08-.75,4.3-2.75,4.89-5.01.21-.9.45-2.24.47-3.95l-.46-14.22,13.54-3.27Z"/>
    <path class="cls-3" d="M234.05,311.21c-.1,4.28-.83,8.29-2.1,11.86-1.36,3.17-3.03,6.27-5.62,9.02-2.67,3.06-6.3,5.07-10.99,6.21-4.69,1.14-8.44.91-11.4-.79-2.77-1.46-4.59-3.72-5.77-6.27-1.68-2.86-2.53-6.34-2.73-10.7l-1.71-61.05c0-4.12.63-7.96,2-11.7,1.36-3.17,2.86-6.37,5.46-9.13,2.6-2.76,6.3-5.07,11.12-6.24,4.83-1.17,8.5-.64,11.27.82,2.77,1.46,4.75,3.82,5.94,6.37,1.65,2.72,2.49,6.21,2.83,10.53l1.7,61.04ZM217.86,253.67c-.11-2.81-.87-4.76-2.16-6.01-.7-.54-1.73-.72-2.94-.42-2.55.62-3.7,2.88-4.22,4.85-.28,1.2-.39,2.51-.33,3.91l1.71,61.04c-.06,2.71.73,4.79,2.16,6.01.7.54,1.6.75,2.81.46,2.55-.62,3.77-2.61,4.22-4.85.21-.9.45-2.24.47-3.95l-1.71-61.05Z"/>
    <path class="cls-3" d="M281.51,299.73c-.1,4.28-.83,8.29-2.1,11.86-1.36,3.17-3.03,6.27-5.62,9.02-2.67,3.06-6.3,5.07-10.99,6.21-4.69,1.13-8.44.91-11.4-.79-2.77-1.46-4.59-3.72-5.77-6.27-1.69-2.86-2.53-6.34-2.73-10.7l-1.71-61.05c0-4.12.63-7.96,2-11.7,1.36-3.17,2.86-6.37,5.46-9.13,2.6-2.76,6.3-5.07,11.12-6.24,4.83-1.17,8.5-.64,11.27.82,2.77,1.46,4.76,3.82,5.94,6.37,1.65,2.72,2.49,6.21,2.83,10.53l1.71,61.04ZM265.33,242.19c-.11-2.81-.87-4.76-2.16-6.01-.7-.54-1.73-.72-2.94-.42-2.55.62-3.7,2.88-4.22,4.85-.28,1.2-.39,2.51-.33,3.91l1.71,61.05c-.06,2.71.73,4.79,2.16,6.01.7.54,1.6.75,2.81.46,2.55-.62,3.77-2.61,4.22-4.85.21-.9.45-2.24.47-3.95l-1.7-61.05Z"/>
    <path class="cls-3" d="M288.99,215.03l14.48-3.5,2.49,89.53,19.17-4.64.43,14.09-33.66,8.14-2.92-103.62Z"/>
    <path class="cls-3" d="M328.54,205.47l33.12-8.01.38,15.66-18.64,4.51.76,27.21,13.41-3.24.47,16.63-13.41,3.24.78,28.48,18.64-4.51.52,15.63-33.12,8.01-2.92-103.62Z"/>
    <path class="cls-3" d="M394.46,217.49c-.11-3.38-.31-7.16-1.4-9.88-1.05-2.58-2.58-4.2-4.86-3.65-3.72,1.04-4.79,5.42-4.61,11.48.14,3.51,1.52,6.87,3.9,10.27,2.38,3.4,5.07,6.87,8.08,10.54,3.75,4.34,6.99,8.95,9.8,13.53,2.67,4.61,4.58,9.54,4.67,15.2.11,6.93-.57,13.48-3.59,19.18-3.02,5.7-7.7,9.81-15.75,11.76-9.25,2.24-14.65-.15-17.7-5.09-3.31-4.88-3.92-12.11-4.26-19.97l14.16-4.84c.07,4.38.4,8.7,1.55,11.69,1.18,3.12,2.77,5.01,5.86,4.26,4.29-1.04,5.6-6.18,5.55-12.84-.11-3.38-1.69-6.97-4.1-10.51-.63-.84-1.29-1.82-1.92-2.66-.63-.84-1.29-1.82-1.92-2.66-1.42-1.78-3.02-3.67-4.64-5.69-1.62-2.02-3.25-4.04-4.94-6.33-3.51-4.54-5.95-9.35-7.58-14.35-1.02-2.45-1.26-5.23-1.38-8.04-.22-5.62.8-11.97,3.88-17.4,2.85-5.23,7.47-9.61,14.27-11.4,8.95-2.31,13.98.31,16.99,5.12,2.91,4.97,3.96,11.67,4.08,17.46l-14.16,4.84Z"/>
    <path class="cls-3" d="M410.98,201.29l-.38-15.66,41.84-10.12.38,15.66-13.68,3.31,2.54,87.95-14.48,3.5-2.53-87.95-13.68,3.31Z"/>
  </g>
  <g>
    <path class="cls-3" d="M345.52,325.46l14.48-3.5c6.3-1.52,12.56-1.48,17.58,2.28,5.02,3.75,8.55,10.7,8.73,22.58.18,11.88-2.77,20.26-7.4,26.34-4.63,6.09-10.91,9.45-17.22,10.98l1.22,41.43-14.48,3.5-2.92-103.62ZM361.21,368.64c4.42-1.07,7.32-2.62,8.77-5.39,1.63-2.66,1.82-6.54,1.7-12.33-.12-5.79-.63-9.64-2.32-11.93-1.62-2.02-4.6-2.58-9.02-1.51l.86,31.16Z"/>
    <path class="cls-3" d="M421.51,411.4l-8.84-41.86-3.89.94,1.34,43.68-14.48,3.5-2.92-103.62,14.48-3.5c17.3-4.18,24.86,4.21,25.51,23.92.22,10.31-2.06,20.23-7.46,25.51l10.74,47.93-14.48,3.5ZM408.48,356.36c2.01-.49,4.66-1.27,6.72-3.9,2.06-2.63,3.77-6.73,3.55-14.06-.21-7.33-2.03-10.72-4.26-12.31-2.23-1.59-4.91-.94-6.92-.45l.9,30.72Z"/>
    <path class="cls-3" d="M481.11,375.56c-.1,4.28-.83,8.29-2.1,11.86-1.36,3.17-3.03,6.27-5.62,9.02-2.67,3.06-6.3,5.07-10.99,6.21-4.69,1.13-8.44.91-11.4-.79-2.77-1.46-4.59-3.72-5.77-6.27-1.69-2.86-2.53-6.34-2.73-10.7l-1.71-61.05c0-4.12.63-7.96,2-11.69,1.36-3.17,2.86-6.37,5.46-9.13,2.6-2.76,6.3-5.07,11.12-6.24,4.83-1.17,8.5-.64,11.27.82,2.77,1.46,4.75,3.82,5.94,6.37,1.65,2.72,2.49,6.21,2.83,10.53l1.71,61.05ZM464.92,318.01c-.11-2.81-.87-4.76-2.16-6.01-.7-.54-1.73-.72-2.94-.42-2.55.62-3.7,2.88-4.22,4.85-.28,1.2-.39,2.51-.33,3.91l1.71,61.05c-.06,2.71.73,4.79,2.16,6.01.7.54,1.6.75,2.81.46,2.55-.62,3.77-2.61,4.22-4.85.21-.9.45-2.24.46-3.94l-1.7-61.05Z"/>
    <path class="cls-3" d="M486.54,381.62c2.91-.28,5-1.64,6.39-4.1.74-1.03,1.16-2.84,1.11-5.38l-2.25-82.06,14.48-3.5,2.26,84.47c.23,5.62-.99,11.17-4.27,15.79-3.28,4.63-8.66,8.2-17.38,9.74l-.35-14.96Z"/>
    <path class="cls-3" d="M516.34,284.15l33.12-8.01.38,15.66-18.64,4.51.76,27.21,13.41-3.24.47,16.63-13.41,3.24.78,28.48,18.64-4.51.52,15.63-33.12,8.01-2.92-103.62Z"/>
    <path class="cls-3" d="M597.03,333.19l.46,14.22c-.1,4.28-.83,8.29-2.1,11.86-1.36,3.17-3.03,6.27-5.62,9.02-2.67,3.06-6.3,5.07-10.99,6.2-4.69,1.14-8.44.91-11.4-.79-2.77-1.46-4.59-3.72-5.77-6.27-1.69-2.86-2.53-6.34-2.73-10.69l-1.7-61.05c0-4.12.63-7.96,2-11.69,1.36-3.17,2.86-6.37,5.46-9.13,2.6-2.76,6.3-5.07,11.12-6.24,4.83-1.17,8.5-.64,11.27.82,2.77,1.46,4.75,3.82,5.94,6.37,1.65,2.72,2.49,6.21,2.83,10.53l.32,14.26-13.54,3.27-.33-14.26c-.08-2.68-.87-4.76-2.43-5.94-.7-.54-1.87-.68-3.34-.33-2.55.62-3.7,2.88-4.36,4.89-.17,1.04-.42,2.37-.47,3.94l1.71,61.05c.21,2.64,1,4.73,2.43,5.94.7.54,1.6.75,2.81.46,3.08-.75,4.3-2.74,4.89-5.01.21-.9.45-2.24.47-3.94l-.46-14.22,13.54-3.27Z"/>
    <path class="cls-3" d="M599.18,279.87l-.38-15.66,41.84-10.12.38,15.66-13.68,3.31,2.53,87.95-14.48,3.5-2.53-87.95-13.68,3.31Z"/>
    <path class="cls-3" d="M671.02,274.7c-.11-3.38-.31-7.16-1.4-9.88-1.05-2.58-2.58-4.2-4.86-3.65-3.72,1.04-4.79,5.42-4.6,11.48.14,3.51,1.52,6.87,3.9,10.27,2.38,3.4,5.07,6.87,8.08,10.54,3.75,4.35,6.99,8.95,9.8,13.53,2.67,4.6,4.58,9.54,4.67,15.19.11,6.93-.57,13.48-3.59,19.18-3.02,5.7-7.71,9.81-15.75,11.76-9.25,2.24-14.65-.15-17.69-5.09-3.31-4.88-3.92-12.11-4.26-19.98l14.16-4.84c.07,4.38.4,8.7,1.55,11.69,1.18,3.12,2.77,5.01,5.86,4.26,4.29-1.04,5.6-6.18,5.55-12.84-.11-3.38-1.69-6.97-4.1-10.5-.63-.84-1.29-1.82-1.92-2.66-.63-.84-1.29-1.82-1.92-2.66-1.43-1.78-3.02-3.67-4.64-5.69-1.62-2.02-3.25-4.04-4.94-6.33-3.51-4.54-5.95-9.35-7.59-14.35-1.02-2.45-1.27-5.23-1.38-8.04-.23-5.62.79-11.97,3.88-17.4,2.85-5.23,7.47-9.61,14.28-11.4,8.95-2.31,13.98.31,16.99,5.12,2.91,4.97,3.96,11.67,4.08,17.46l-14.16,4.84Z"/>
  </g>
  <polygon class="cls-1" points="690.32 197.46 500.67 243.54 496.04 155.41 682.93 109.36 690.32 197.46"/>
  <g>
    <path class="cls-2" d="M532.11,211.73c1.57-.15,2.68-.88,3.43-2.21.4-.56.62-1.52.59-2.89l-1.33-44.07,7.77-1.9,1.35,45.37c.13,3.02-.51,6-2.27,8.49-1.75,2.49-4.64,4.42-9.32,5.26l-.21-8.03Z"/>
    <path class="cls-2" d="M547.53,215.5l6.26-57.6,9.5-2.33,9.72,53.69-7.56,1.85-1.85-10.99-7.49,1.83-1.03,11.69-7.56,1.85ZM559.51,174.73l-.26-1.39-.43.11-.17,1.49-1.67,18.11,5.33-1.3-2.79-17.01Z"/>
    <path class="cls-2" d="M574.88,152.73l7.77-1.9c3.38-.83,6.74-.81,9.45,1.2,2.7,2.01,4.61,5.74,4.72,12.12.11,6.38-1.45,10.88-3.93,14.16-2.48,3.28-5.85,5.09-9.23,5.92l.72,22.25-7.77,1.9-1.73-55.65ZM583.38,175.9c2.38-.58,3.92-1.42,4.7-2.91.87-1.43.97-3.52.89-6.63-.08-3.11-.35-5.18-1.26-6.4-.88-1.08-2.47-1.38-4.85-.8l.51,16.73Z"/>
    <path class="cls-2" d="M599.78,202.7l6.26-57.6,9.5-2.33,9.72,53.69-7.56,1.85-1.85-10.99-7.48,1.83-1.03,11.69-7.56,1.85ZM611.77,161.93l-.26-1.39-.43.11-.17,1.49-1.67,18.11,5.33-1.3-2.79-17.01Z"/>
    <path class="cls-2" d="M636.14,164.58l-.74-2.41-.43.11,1.02,31.56-7.12,1.75-1.73-55.65,6.91-1.69,8.41,27.16.74,2.41.43-.11-.95-31.58,7.12-1.75,1.73,55.65-6.91,1.69-8.48-27.14Z"/>
  </g>
  <polygon class="cls-1" points="300.76 449.61 167.34 482.45 167.34 394.35 299.31 362.57 300.76 449.61"/>
  <polygon class="cls-2" points="256.55 417.99 245.86 410.43 245.82 410.49 219.85 392.17 212.28 402.86 238.28 421.19 219.98 447.13 230.67 454.69 248.98 428.73 248.98 428.73 256.55 418.05 256.52 418.03 256.55 417.99"/>
</svg>